<?xml version="1.0" standalone="no"?>
<!DOCTYPE svg PUBLIC "-//W3C//DTD SVG 1.1//EN" "http://www.w3.org/Graphics/SVG/1.1/DTD/svg11.dtd" >
<svg xmlns="http://www.w3.org/2000/svg">
  <metadata>Created by iconfont</metadata>
  <defs>
  <font id="iconfont" horiz-adv-x="1024">
    <font-face
      font-family="iconfont"
      font-weight="400"
      font-stretch="normal"
      units-per-em="1024"
      ascent="896"
      descent="-128"
    />
      <missing-glyph />
      
      <glyph glyph-name="-safety-fill" unicode="&#59026;" d="M482.18112 851.51744L140.65664 734.208a31.41632 31.41632 0 0 1-21.17632-29.696v-484.5568c0-9.6256 4.42368-18.75968 12.04224-24.69888l341.48352-267.14112a31.41632 31.41632 0 0 1 38.7072 0l341.52448 267.14112a31.41632 31.41632 0 0 1 12.04224 24.73984V704.47104a31.41632 31.41632 0 0 1-21.17632 29.696L502.5792 851.51744a31.41632 31.41632 0 0 1-20.39808 0zM703.2832 515.4816000000001l-237.44512-238.55104a36.2496 36.2496 0 0 0-51.28192 0l-136.192 136.56064a38.5024 38.5024 0 0 0-3.64544 54.19008c13.9264 15.9744 38.0928 17.6128 54.02624 3.64544l111.2064-111.53408 209.3056 209.87904a36.2496 36.2496 0 0 0 51.28192 0l3.19488-3.19488a36.49536 36.49536 0 0 0-0.45056-50.9952z"  horiz-adv-x="1024" />
      
      <glyph glyph-name="-party-fill" unicode="&#59025;" d="M166.272 679.04h193.706667V748.8c0 10.282667 8.362667 18.602667 18.645333 18.602667h309.12c10.325333 0 18.645333-8.32 18.645333-18.602667v-69.717333h194.048c87.936 0 80.768 3.925333 80.768-78.037334v-522.666666c0-78.08 7.168-78.08-80.768-78.08H166.272c-88.021333 0-80.810667-9.301333-80.810667 78.08V601.002667c0 86.869333-7.210667 78.08 80.810667 78.08z m449.792-347.178667a121.813333 121.813333 0 0 0-80.597333-30.72c-31.829333 0-59.434667 12.245333-82.773334 30.72-53.034667-26.666667-89.088-61.482667-89.088-125.013333h339.456c0 63.530667-36.053333 96.298667-86.997333 125.013333z m-82.773333-6.144c53.077333 0 95.573333 43.050667 95.573333 94.293334 0 51.2-42.496 94.293333-95.573333 94.293333-52.992 0-95.445333-43.093333-95.445334-94.293333 0-53.333333 44.544-94.293333 95.488-94.293334z"  horiz-adv-x="1066" />
      
      <glyph glyph-name="-qualifications-fill" unicode="&#59023;" d="M324.44416 686.85824c19.74272 0 35.75808-15.9744 35.75808-35.75808v-73.3184c0-19.74272 15.9744-35.75808 35.75808-35.75808h232.07936c19.74272 0 35.75808 15.9744 35.75808 35.75808v73.3184c0 19.78368 15.9744 35.75808 35.75808 35.75808h206.76608c19.74272 0 35.75808-15.9744 35.75808-35.75808v-579.50208c0-19.74272-15.9744-35.75808-35.75808-35.75808H117.67808A35.75808 35.75808 0 0 0 81.92 71.59807999999998V651.10016c0 19.78368 15.9744 35.75808 35.75808 35.75808h206.76608z m267.01824-414.84288a117.06368 117.06368 0 0 0-77.4144-29.4912c-30.55616 0-57.05728 11.79648-79.4624 29.4912-50.91328-25.55904-85.52448-58.9824-85.52448-119.93088h325.91872c0 60.94848-34.6112 92.40576-83.5584 119.93088z m-79.4624 174.98112c-50.91328 0-91.66848-41.28768-91.66848-90.43968 0-51.11808 42.76224-90.43968 91.66848-90.43968 50.95424 0 91.7504 41.28768 91.7504 90.43968 0 49.152-40.79616 90.43968-91.7504 90.43968zM593.92 773.12c9.91232 0 17.89952-7.9872 17.89952-17.85856v-143.27808a17.85856 17.85856 0 0 0-17.85856-17.85856h-155.48416a17.85856 17.85856 0 0 0-17.89952 17.85856V755.26144c0 9.8304 8.02816 17.85856 17.89952 17.85856H593.92z"  horiz-adv-x="1024" />
      
      <glyph glyph-name="-leave-fill" unicode="&#59022;" d="M765.70624 296.42751999999996a177.19296 177.19296 0 0 0 126.89408-53.49376 183.9104 183.9104 0 0 0 52.26496-129.31072c-0.16384-100.72064-80.44544-182.272-179.36384-182.10816-98.87744 0.08192-178.9952 81.83808-178.91328 182.55872 0.04096 100.72064 80.24064 182.35392 179.11808 182.35392z m-123.98592 517.7344a20.48 20.48 0 0 0 20.15232-16.71168l0.32768-3.6864 0.32768-56.9344h196.73088c19.08736 0 34.816-14.37696 36.98688-32.89088l0.24576-4.34176v-387.52256a227.49184 227.49184 0 0 1-303.67744 1.59744c-84.70528-74.67008-104.12032-200.0896-47.43168-297.32864l5.5296-9.0112H139.6736a37.2736 37.2736 0 0 0-37.02784 32.89088L102.4 44.56448V699.5968c0 19.08736 14.336 34.816 32.89088 36.98688l4.34176 0.24576h206.2336L346.9312 794.0096a20.48 20.48 0 0 0 16.7936 19.82464L367.4112 814.08h274.35008z m128.69632-607.0272h-48.37376a7.45472 7.45472 0 0 1-7.08608-5.12l-0.4096-2.33472v-130.37568c0-3.2768 2.17088-6.06208 5.12-7.04512l2.37568-0.4096h138.52672c3.2768 0 6.06208 2.17088 7.04512 5.12l0.4096 2.33472v45.75232a7.45472 7.45472 0 0 1-5.12 7.08608l-2.33472 0.4096h-75.24352a7.45472 7.45472 0 0 0-7.08608 5.03808l-0.4096 2.37568V199.67999999999995c0 4.096-3.2768 7.45472-7.41376 7.45472zM512 336.2816H252.02688a8.192 8.192 0 0 1-8.192-8.192v-65.536c0-4.5056 3.6864-8.192 8.192-8.192H512a8.192 8.192 0 0 1 8.192 8.192v65.536a8.192 8.192 0 0 1-8.192 8.192zM621.11744 547.8399999999999H248.0128a8.192 8.192 0 0 1-8.192-8.192v-65.536c0-4.5056 3.6864-8.192 8.192-8.192h373.10464a8.192 8.192 0 0 1 8.192 8.192v65.536a8.192 8.192 0 0 1-8.192 8.192z"  horiz-adv-x="1024" />
      
      <glyph glyph-name="-communication-fill-copy" unicode="&#59422;" d="M939.008 635.605333a42.666667 42.666667 0 0 0 42.666667-42.666666V117.33333300000004a42.666667 42.666667 0 0 0-42.666667-42.666666h-160l-7.509333-114.688-172.458667 114.688H212.394667a42.666667 42.666667 0 0 0-42.666667 42.666666V592.938667a42.666667 42.666667 0 0 0 42.666667 42.666666h726.613333z m-105.386667 134.997334a21.333333 21.333333 0 0 0 21.333334-21.333334v-41.088a21.333333 21.333333 0 0 0-21.333334-21.333333h-0.256L194.432 694.826667a75.093333 75.093333 0 0 1-76.032-74.112v-389.76a21.333333 21.333333 0 0 0-21.333333-21.333334h-32.725334a21.333333 21.333333 0 0 0-21.333333 21.333334V727.893333a42.666667 42.666667 0 0 0 42.666667 42.666667h747.946666z m-322.346666-240.512c-16.768 7.978667-18.645333 9.130667-32.682667 3.541333L412.586667 507.733333l-2.986667-1.28c-16.384-7.466667-6.058667-15.829333 23.552-49.365333l92.928-101.802667-98.432-39.082666-97.962667 50.474666-4.778666 2.56c-19.882667 10.24-29.952 9.301333-62.293334-3.413333l-35.84-14.08 85.077334-81.578667-85.034667-33.792 2.133333-0.298666c9.258667-0.981333 32.64-1.664 61.866667-1.792h22.186667c68.992 0.298667 156.330667 3.328 176.213333 11.093333l385.621333 151.04 3.84 2.005333c15.914667 10.496 23.466667 44.16 17.066667 62.037334a35.370667 35.370667 0 0 1-46.208 21.589333l-147.2-57.685333-185.514667 103.125333z"  horiz-adv-x="1024" />
      
      <glyph glyph-name="-change-fill" unicode="&#59018;" d="M779.178667 788.778667c20.352 0 36.864-16.512 36.864-36.906667v-252.330667L401.962667 84.48000000000002v-69.504a36.906667 36.906667 0 0 0-36.906667-36.864H150.314667a36.906667 36.906667 0 0 0-36.906667 36.864V751.8720000000001c0 20.394667 16.512 36.906667 36.906667 36.906667z m-15.36-475.264l87.125333-85.546667-252.373333-249.856h-79.957334a7.381333 7.381333 0 0 0-7.381333 7.381333v77.952l252.586667 250.069334z m-370.517334-61.098667H254.293333a7.381333 7.381333 0 0 1-7.381333-7.381333v-36.949334c0-4.096 3.285333-7.381333 7.381333-7.381333h139.008a7.381333 7.381333 0 0 1 7.381334 7.381333v36.949334a7.381333 7.381333 0 0 1-7.381334 7.381333z m455.509334 130.304c6.229333 0 11.904-2.304 16.213333-6.613333l52.309333-51.328a21.845333 21.845333 0 0 0 0-31.573334v0.042667l-38.869333-43.008-87.168 85.333333 41.344 40.533334a23.637333 23.637333 0 0 0 16.213333 6.613333z m-357.973334-19.541333H254.293333a7.381333 7.381333 0 0 1-7.381333-7.381334v-36.949333c0-4.053333 3.285333-7.381333 7.381333-7.381333h236.544a7.381333 7.381333 0 0 1 7.381334 7.381333v36.949333a7.381333 7.381333 0 0 1-7.381334 7.381334z m-115.626666 311.68a36.352 36.352 0 0 1-11.946667-1.962667L201.472 616.96l-3.242667-1.493333c-8.704-5.248-8.021333-16.64 2.432-20.864l47.872-19.285334v-97.365333l0.341334-3.669333c2.261333-11.861333 15.445333-20.992 31.317333-20.992h189.994667l4.693333 0.298666c15.232 1.706667 26.965333 11.946667 26.965333 24.32V575.4026670000001l47.872 19.328 3.114667 1.621333c8.277333 5.632 6.826667 16.938667-3.882667 20.693333L387.114667 672.853333l-3.84 1.109334a37.290667 37.290667 0 0 1-8.106667 0.853333z"  horiz-adv-x="1024" />
      
      <glyph glyph-name="-retain-fill-copy" unicode="&#59421;" d="M900.010667 754.816a38.826667 38.826667 0 0 0 38.826666-38.784v-647.722667a38.826667 38.826667 0 0 0-38.826666-38.826666H124.245333a38.826667 38.826667 0 0 0-38.784 38.826666V716.032a38.826667 38.826667 0 0 0 38.826667 38.826667h775.722667z m-92.373334-412.458667a7.765333 7.765333 0 0 1-10.410666-0.597333l-92.202667-93.994667-47.701333 44.970667a7.765333 7.765333 0 0 1-10.88-0.213333l-26.581334-27.306667a7.765333 7.765333 0 0 1 0.341334-11.221333l85.12-76.373334a7.765333 7.765333 0 0 1 10.794666 0.426667l122.154667 128.853333a7.765333 7.765333 0 0 1-0.768 11.392z m-412.672 27.008c-100.096 0-181.76-76.501333-186.453333-172.544l-0.213333-8.789333h373.333333l-0.256 8.789333c-4.693333 96.042667-86.357333 172.544-186.453333 172.544z m0.426667 234.026667c-54.058667 0-97.834667-42.496-97.834667-94.976S341.333333 413.44 395.349333 413.44c54.016 0 97.792 42.538667 97.792 94.976 0 52.48-43.776 94.976-97.792 94.976z m417.578667-116.48h-191.701334a7.765333 7.765333 0 0 1-7.381333-5.290667l-0.384-2.474666v-32.853334l0.426667-2.432a7.765333 7.765333 0 0 1 4.906666-4.906666l2.432-0.384 191.701334 0.213333c3.413333 0 6.357333 2.218667 7.381333 5.290667l0.384 2.474666V479.146667c0 4.266667-3.456 7.765333-7.765333 7.765333z m-45.738667 103.637333h-145.962667a7.765333 7.765333 0 0 1-7.381333-5.333333l-0.384-2.432v-32.853333l0.426667-2.432a7.765333 7.765333 0 0 1 4.906666-4.906667l2.432-0.426667 145.962667 0.213334c3.413333 0 6.357333 2.261333 7.381333 5.333333l0.384 2.432V582.826667c0 4.266667-3.456 7.765333-7.765333 7.765333z"  horiz-adv-x="1024" />
      
      <glyph glyph-name="-entrance-fill" unicode="&#59017;" d="M898.986667 739.968a38.826667 38.826667 0 0 0 38.784-38.826667v-647.722666a38.826667 38.826667 0 0 0-38.826667-38.826667H123.221333a38.826667 38.826667 0 0 0-38.826666 38.826667V701.184a38.826667 38.826667 0 0 0 38.826666 38.784h775.722667zM389.973333 354.47466699999995c-103.082667 0-186.666667-81.194667-186.666666-181.333334h373.333333l-0.213333 8.789334c-4.693333 96.085333-86.4 172.544-186.453334 172.544z m371.626667-14.250667l-43.648-42.069333-43.562667 42.069333-37.290666-37.546667 42.794666-41.301333-42.794666-41.301333 37.290666-37.546667 43.562667 42.112 43.648-42.112 37.290667 37.546667-42.837334 41.301333 42.837334 41.301333-37.290667 37.546667z m-371.2 248.32c-54.016 0-97.792-42.538667-97.792-95.018667 0-52.437333 43.776-94.976 97.792-94.976 53.973333 0 97.749333 42.538667 97.749333 94.976 0 52.48-43.776 95.018667-97.749333 95.018667z m414.250667-116.48h-188.373334c-4.266667 0-7.722667-3.498667-7.722666-7.765333v-32.853334c0-4.266667 3.413333-7.765333 7.722666-7.765333h188.373334c4.266667 0 7.722667 3.498667 7.722666 7.765333v32.853334c0 4.266667-3.456 7.722667-7.722666 7.722666z m-50.773334 103.594667h-137.6c-4.266667 0-7.722667-3.456-7.722666-7.765334v-32.853333c0-4.266667 3.413333-7.722667 7.722666-7.722667h137.557334c4.266667 0 7.765333 3.456 7.765333 7.722667v32.853333c0 4.266667-3.456 7.765333-7.765333 7.765334z"  horiz-adv-x="1024" />
      
      <glyph glyph-name="-tax-fill" unicode="&#59014;" d="M271.445333 758.826667l0.042667-97.536c0-9.557333 6.826667-17.493333 15.914667-19.114667l3.456-0.298667h400.213333c9.514667 0 17.408 6.826667 19.072 15.914667l0.298667 3.498667V758.826667h143.36a38.826667 38.826667 0 0 0 38.784-38.826667l-0.042667-251.178667-266.666667-344.917333-17.237333-138.24 136.832 50.901333 147.072 196.608v-237.056a38.826667 38.826667 0 0 0-38.741333-38.784H124.117333A38.826667 38.826667 0 0 0 85.333333-3.840000000000032V720a38.826667 38.826667 0 0 0 38.826667 38.784h147.285333z m390.101334-650.837334l54.954666-43.008-70.826666-33.066666 15.872 76.074666z m188.885333 250.282667l55.168-43.008-180.48-238.336-54.954667 43.008 180.266667 238.336zM389.12 517.674667H336.213333v-60.202667h-24.661333v-47.36h8.917333c10.496 0.256 15.786667-7.893333 15.786667-24.448v-143.957333h-23.68v-44.245334h75.776c18.261333 0.426667 27.392 8.96 27.392 25.514667v18.730667H389.12v168.448h23.296v47.317333h-23.296V517.674667z m192.938667-197.376H476.16c-29.952 0-44.885333-14.506667-44.885333-43.52v-79.36h193.962666v81.066666c0 27.861333-14.378667 41.813333-43.178666 41.813334z m-30.165334-75.52c11.434667 0 17.152-3.84 17.152-11.605334v-4.736h-81.578666v16.341334h64.426666z m0 44.544c11.434667 0 17.152-3.84 17.152-11.52v-4.778667h-81.578666v16.298667h64.426666z m354.688 109.525333l24.618667-19.114667a19.413333 19.413333 0 0 0 3.029333-27.733333l-19.797333-23.808-55.296 42.922667 20.608 24.789333a19.413333 19.413333 0 0 0 26.837333 2.944z m-410.538666 115.754667h-59.989334l15.786667-29.568c-22.4-0.469333-33.621333-11.818667-33.621333-34.048v-118.442667h216.618666v117.76c0 22.698667-10.496 34.048-31.530666 34.048l10.282666 30.293333h-56.192c-8.234667-20.224-18.005333-30.293333-29.312-30.293333-11.306667 0-21.973333 10.069333-32.042666 30.293333z m-13.354667-69.418667c10.965333 0 16.426667-5.76 16.426667-17.322667v-24.874666l-8.234667 27.904h-28.757333l14.378666-51.370667h22.613334v-8.149333h-38.4v73.813333h21.973333z m108.885333-14.592l0.085334-1.066667v-58.154666h-36.309334v7.125333l24.661334 0.341333 11.562666 51.754667z m-14.634666 14.592c8.704 0 13.568-4.096 14.549333-12.373333l0.085333-1.92h-25.941333l-10.282667-29.269334v43.562667h21.589334zM648.704 810.666667c10.709333 0 19.413333-8.704 19.413333-19.413334v-100.565333a19.413333 19.413333 0 0 0-19.413333-19.413333H336.512a19.413333 19.413333 0 0 0-19.370667 19.413333V791.253333c0 10.709333 8.661333 19.413333 19.370667 19.413334h312.192z"  horiz-adv-x="1024" />
      
      <glyph glyph-name="-project-fill" unicode="&#59012;" d="M808.362667 353.877333c23.381333-10.24 45.226667-20.992 66.858666-42.624 21.674667-21.589333 37.12-44.16 47.488-70.186666 10.24-26.026667 17.152-48.170667 15.786667-88.746667-1.365333-40.533333-13.653333-64.213333-25.344-89.301333-12.245333-22.954667-25.472-37.333333-50.901333-60.458667-19.413333-16.768-39.168-24.917333-63.573334-35.114667-25.002667-8.661333-49.408-10.325333-75.690666-10.112-26.581333 2.944-44.288 5.632-66.901334 15.488-23.296 11.093333-40.661333 20.992-58.368 37.12-20.053333 20.309333-34.944 38.4-46.506666 61.866667-11.648 27.605333-19.498667 54.314667-20.736 80.554667a206.208 206.208 0 0 0 13.226666 82.944c10.026667 25.344 27.733333 51.2 45.653334 70.997333 17.706667 19.498667 38.784 32.426667 62.037333 43.605333 23.68 11.434667 49.834667 16.725333 75.392 18.005334 27.221333 0 57.429333-3.328 81.578667-14.037334z m-273.066667 342.058667c0-11.690667 1.877333-24.192 5.418667-37.674667 3.541333-13.525333 9.088-25.898667 16.554666-37.162666 7.594667-11.392 17.237333-20.906667 29.226667-28.586667 11.989333-7.594667 26.453333-11.477333 43.093333-11.477333h131.157334v-153.770667a230.869333 230.869333 0 0 1-16.042667 1.365333 219.477333 219.477333 0 0 1-15.317333 0.512 244.48 244.48 0 0 1-123.52-32.170666c-35.285333-19.925333-73.258667-47.914667-95.36-81.536-1.024-1.578667-8.149333-12.373333-12.373334-24.448H206.208a7.424 7.424 0 0 1-7.424-7.424v-59.818667c0-4.096 3.328-7.424 7.424-7.424h265.685333c-0.853333-9.258667-0.853333-19.712-0.853333-47.189333 0-27.52 3.882667-53.674667 11.861333-78.592 7.68-24.874667 18.816-47.658667 33.109334-68.437334H201.216c-0.810667 0-1.664 0-2.432 0.128h-39.125333c-8.96 0-30.72 2.048-51.754667 20.821334a77.525333 77.525333 0 0 0-22.613333 54.357333V739.285333c0 8.789333 2.773333 28.714667 20.224 48.256A76.714667 76.714667 0 0 0 157.781333 810.666667h377.514667v-114.773334z m295.68-465.536l-105.344-114.901333-71.594667 67.84-2.901333 2.304a21.461333 21.461333 0 0 1-28.842667-4.864 18.858667 18.858667 0 0 1 2.389334-25.173334l103.082666-97.706666 134.528 146.773333 2.218667 2.858667a18.901333 18.901333 0 0 1-4.266667 24.874666 21.589333 21.589333 0 0 1-29.269333-2.005333zM191.658667 501.546667v-59.818667c0-4.096 3.328-7.424 7.424-7.424h412.074666a7.424 7.424 0 0 1 7.424 7.424V501.546667a7.424 7.424 0 0 1-7.424 7.424H199.082667a7.424 7.424 0 0 1-7.424-7.424z m569.088 290.56V631.4666669999999h-106.837334a70.528 70.528 0 0 0-50.133333 21.333333 72.533333 72.533333 0 0 0-20.778667 50.986667V810.666667h159.189334c10.24 0 18.56-8.32 18.56-18.56z"  horiz-adv-x="1024" />
      
      <glyph glyph-name="-service-fill" unicode="&#59011;" d="M491.52-5.1200000000000045S-199.39328 396.24704 129.92512 706.92864C291.34848 855.8592 491.52 706.92864 491.52 706.92864s200.17152 148.8896 361.59488 0C1182.43328 396.288 491.52-5.1200000000000045 491.52-5.1200000000000045z m193.7408 517.85728c51.6096-90.60352 64.55296-129.4336 64.55296-129.4336s122.6752 97.0752 64.55296 194.1504c-58.12224 97.11616-193.7408 64.75776-193.7408 64.75776s12.94336-38.83008 64.59392-129.4336z"  horiz-adv-x="1024" />
      
      <glyph glyph-name="-settled-fill" unicode="&#59010;" d="M713.386667 200.53333299999997v59.733334a21.333333 21.333333 0 0 0 21.333333 21.333333h29.354667a54.741333 54.741333 0 0 1 50.645333 51.2v81.066667a21.333333 21.333333 0 0 0 21.333333 21.333333h58.666667a21.333333 21.333333 0 0 0 21.333333-21.333333v-213.290667a21.333333 21.333333 0 0 0-21.333333-21.333333c-24.618667 0.042667-51.242667 0.042667-80-0.042667H734.72a21.333333 21.333333 0 0 0-21.333333 21.333333z m50.688 593.066667h-80a21.333333 21.333333 0 0 0-21.333334 21.333333V874.666667a21.333333 21.333333 0 0 0 21.333334 21.333333h210.602666a21.333333 21.333333 0 0 0 21.333334-21.376c-0.042667-24.917333 0-51.925333 0.042666-81.024v-132.266667a21.333333 21.333333 0 0 0-21.333333-21.333333h-58.666667a21.333333 21.333333 0 0 0-21.333333 21.333333V742.4a54.741333 54.741333 0 0 1-50.645333 51.2z m-15.189334-368.64c3.413333-29.013333-13.397333-56.576-40.533333-66.56a201.685333 201.685333 0 0 0-81.066667-112.64c-0.725333-32.512 0.981333-65.024 5.034667-97.28 30.421333-76.8 126.72-25.6 212.821333-112.64 23.082667-52.053333 38.442667-107.264 45.610667-163.84H130.730667c4.992 54.741333 18.688 108.373333 40.533333 158.72 75.989333 92.16 187.477333 30.72 217.856 117.76 4.266667 32.256 5.930667 64.768 5.12 97.28a222.421333 222.421333 0 0 0-81.066667 112.64c-15.232 0-35.498667 15.36-40.533333 66.56-4.608 18.602667 1.237333 38.229333 15.146667 51.2-20.266667 61.44-30.378667 261.12 121.6 276.48a106.154667 106.154667 0 0 0 101.333333 40.96c202.666667-5.12 263.466667-153.6 222.933333-322.56 14.848-10.069333 21.077333-29.013333 15.232-46.08zM185.386667 640H126.72a21.333333 21.333333 0 0 0-21.333333 21.333333V793.6c0.085333 29.098667 0.128 56.106667 0.085333 81.066667a21.333333 21.333333 0 0 0 21.333333 21.333333h210.602667a21.333333 21.333333 0 0 0 21.333333-21.333333v-59.733334a21.333333 21.333333 0 0 0-21.333333-21.333333H257.408a54.741333 54.741333 0 0 1-50.688-51.2v-81.066667a21.333333 21.333333 0 0 0-21.333333-21.333333z m72.021333-358.4h29.312a21.333333 21.333333 0 0 0 21.333333-21.333333v-59.733334a21.333333 21.333333 0 0 0-21.333333-21.333333H206.72c-28.714667 0.085333-55.381333 0.085333-79.957333 0.042667a21.333333 21.333333 0 0 0-21.333334 21.333333V413.866667a21.333333 21.333333 0 0 0 21.333334 21.333333h58.624a21.333333 21.333333 0 0 0 21.333333-21.333333v-81.066667c1.834667-27.477333 23.466667-49.322667 50.688-51.2z"  horiz-adv-x="1024" />
      
      <glyph glyph-name="-modify-fill" unicode="&#59009;" d="M926.592 534.3573329999999a400.981333 400.981333 0 0 1-326.442667 168.192c-222.122667 0-402.176-181.077333-402.176-404.48a404.608 404.608 0 0 1 254.72-376.405333H85.333333a42.666667 42.666667 0 0 0-42.666666 42.666667V768a42.666667 42.666667 0 0 0 42.666666 42.666667h798.592a42.666667 42.666667 0 0 0 42.666667-42.666667v-233.642667z m50.901333-566.485333l-46.848-47.104a21.333333 21.333333 0 0 0-30.122666-0.128l-115.413334 114.048a316.757333 316.757333 0 0 0-184.106666-58.709333c-176.426667 0-319.402667 143.786667-319.402667 321.237333 0 177.408 142.976 321.237333 319.402667 321.237333s319.402667-143.829333 319.402666-321.28a321.024 321.024 0 0 0-58.368-185.173333l115.328-113.92a21.333333 21.333333 0 0 0 0.128-30.208zM784.554667 424.96a23.808 23.808 0 0 1 32.298666-8.746667 24.106667 24.106667 0 0 1 9.344 32.298667c-40.405333 72.32-93.866667 113.706667-159.488 121.728a23.850667 23.850667 0 0 1-21.973333-9.429333 24.149333 24.149333 0 0 1 16.213333-38.314667c49.194667-5.973333 90.154667-37.717333 123.605334-97.536z"  horiz-adv-x="1024" />
      
      <glyph glyph-name="-mailbox-fill" unicode="&#59007;" d="M935.808 436.053333c1.578667 0 2.858667-1.28 2.858667-2.858666v-355.925334c0-114.218667 0-119.68-101.674667-119.936H187.008C90.453333-42.41066699999999 85.589333-37.50400000000002 85.333333 60.928v337.493333a19.413333 19.413333 0 0 0 27.733334 17.536l383.658666-181.888a38.826667 38.826667 0 0 1 33.962667 0.341334l399.232 199.637333a19.413333 19.413333 0 0 0 2.517333 1.024l2.474667 0.853333a2.858667 2.858667 0 0 0 0.896 0.128z m-209.664 41.130667c4.266667 0 7.765333-3.413333 7.765333-7.68v-61.781333c0-4.266667-3.498667-7.722667-7.765333-7.722667H295.296a7.722667 7.722667 0 0 0-7.765333 7.68V469.504c0 4.266667 3.456 7.722667 7.765333 7.722667h430.848zM821.205333 768c67.541333-0.298667 71.936-4.693333 72.192-73.6v-199.168c0-7.509333-4.266667-14.293333-11.050666-17.493333l-48.341334-23.04a19.413333 19.413333 0 0 0-27.733333 17.493333v168.106667c-0.085333 38.912-1.877333 38.912-43.605333 38.912H256c-38.186667-0.085333-38.186667-1.92-38.186667-44.458667v-167.978667a19.413333 19.413333 0 0 0-27.392-17.664l-48.384 21.888a19.413333 19.413333 0 0 0-11.392 17.664l0.042667 205.738667C130.986667 763.3066670000001 135.338667 767.701333 202.922667 768z m-95.061333-155.648c4.266667 0 7.765333-3.456 7.765333-7.722667v-61.781333c0-4.266667-3.498667-7.68-7.765333-7.68H295.296a7.722667 7.722667 0 0 0-7.765333 7.68V604.629333c0 4.266667 3.456 7.68 7.765333 7.68h430.848z"  horiz-adv-x="1024" />
      
      <glyph glyph-name="-vpn-fill" unicode="&#59006;" d="M490.794667 896c151.552 0 274.432-124.757333 274.432-278.613333a279.338667 279.338667 0 0 0-132.778667-238.677334c53.034667-23.04 100.949333-58.581333 141.226667-103.68l-382.293334-0.042666a106.666667 106.666667 0 0 1-106.666666-106.666667V-21.33333300000004c0-21.333333 6.229333-41.216 17.066666-57.898667h-222.72c0 210.346667 112.469333 389.546667 270.037334 457.984A279.168 279.168 0 0 0 216.32 617.386667C216.32 771.242667 339.2 896 490.794667 896zM868.266667 213.33333300000004c46.72 0 84.565333-37.888 84.565333-84.565333v-172.202667A84.565333 84.565333 0 0 0 868.266667-128H440.106667a84.565333 84.565333 0 0 0-84.608 84.565333v172.202667c0 46.677333 37.888 84.565333 84.608 84.565333H868.266667z m-354.048-64h-30.72l11.818666-213.333333h25.6l70.869334 213.333333h-30.72l-43.776-148.906666h-0.597334l-2.474666 148.906666z m138.410666 0h-43.52l-29.354666-213.333333h29.013333l11.434667 83.285333h14.762666c10.837333 0 19.797333 1.962667 26.965334 5.845334 7.168 3.882667 13.226667 9.386667 18.176 16.341333 4.224 5.802667 7.253333 11.946667 9.216 18.56 1.962667 6.613333 3.584 14.677333 4.906666 24.32 1.792 12.757333 2.218667 22.869333 1.365334 30.378667a39.936 39.936 0 0 1-7.509334 19.626666 33.237333 33.237333 0 0 1-14.933333 11.690667 57.728 57.728 0 0 1-20.522667 3.285333z m98.901334 0h-27.861334l-29.397333-213.333333h29.013333l17.664 128.256h0.554667l26.666667-128.256h27.306666l29.354667 213.333333h-29.013333l-17.664-128.554666h-0.554667l-26.069333 128.554666z m-102.314667-28.757333c5.674667 0 9.941333-0.896 12.714667-2.688 2.773333-1.792 4.693333-4.394667 5.76-7.808a30.293333 30.293333 0 0 0 0.896-11.818667 345.386667 345.386667 0 0 0-4.096-28.928 32.128 32.128 0 0 0-4.266667-11.093333 20.224 20.224 0 0 0-8.106667-7.466667 30.677333 30.677333 0 0 0-14.037333-2.730666h-13.909333l9.984 72.533333h15.061333z"  horiz-adv-x="1024" />
      
      <glyph glyph-name="-network-fill" unicode="&#59004;" d="M66.048 245.07733299999995c0.256-82.986667 0.042667-82.901333 85.333333-83.114666h256v-103.936H237.354667c-16.981333 0.341333-16.981333 0-16.981334-20.522667v-42.069333c0-20.821333 0-21.248 37.674667-20.48h512c37.674667-0.768 37.674667-0.213333 37.674667 20.48v42.069333c0 21.333333 2.688 21.333333-37.674667 20.522667h-149.333333v103.936h256c85.205333 0.213333 85.077333 0.213333 85.333333 83.114666V742.7413329999999a42.666667 42.666667 0 0 1-42.666667 42.666667H108.757333a42.666667 42.666667 0 0 1-42.666666-42.666667l-0.042667-497.664z m444.928 412.330667c22.869333 0 42.666667-9.130667 59.392-25.898667a85.333333 85.333333 0 0 0 25.941333-60.970666c0-22.869333-9.130667-42.666667-25.941333-59.434667a80.554667 80.554667 0 0 0-59.349333-24.362667c-22.826667 0-42.666667 7.594667-59.477334 24.362667-16.768 16.768-25.898667 36.565333-25.898666 59.434667s9.130667 42.666667 25.856 60.970666c16.768 16.768 36.608 25.898667 59.477333 25.898667z m170.666667-327.936a13.056 13.056 0 0 0-4.053334-9.514667 14.208 14.208 0 0 0-9.898666-3.882666H354.261333a14.208 14.208 0 0 0-9.898666 3.882666 13.056 13.056 0 0 0-4.053334 9.514667v29.738667c0 25.301333 20.138667 46.165333 58.965334 61.013333 38.784 14.933333 75.989333 23.850667 111.701333 23.850667 34.133333-1.493333 71.338667-8.96 111.701333-23.808 38.826667-14.933333 58.965333-35.754667 58.965334-61.013334v-29.781333z"  horiz-adv-x="1024" />
      
      <glyph glyph-name="-cooperation-fill" unicode="&#59003;" d="M716.10368 6.430719999999951c-51.11808-26.33728-93.34784-32.23552-117.67808-36.4544-24.3712-4.3008-49.60256-6.43072-75.776-6.43072-59.67872 0-115.5072 11.264-167.56736 33.792a439.74656 439.74656 0 0 0-136.51968 91.7504 428.93312 428.93312 0 0 0-92.24192 136.51968 420.57728 420.57728 0 0 0-33.75104 168.01792c0 59.06432 11.264 114.76992 33.75104 167.1168 22.528 52.34688 53.248 98.01728 92.24192 136.97024a435.8144 435.8144 0 0 0 136.51968 92.24192c52.0192 22.528 107.88864 33.75104 167.5264 33.75104 59.06432 0 114.76992-11.264 167.1168-33.75104 52.34688-22.528 98.01728-53.248 136.97024-92.24192a434.3808 434.3808 0 0 0 92.24192-136.97024c22.528-52.34688 33.792-108.05248 33.792-167.1168 0-15.81056-0.77824-31.17056-2.29376-46.08-1.51552-14.9504-1.51552-20.39808-6.84032-43.4176-5.3248-22.9376-9.50272-88.10496-74.752-165.56032-65.20832-77.4144-101.66272-105.79968-152.7808-132.13696z m-111.24736 268.16512c-3.76832 3.4816-8.192 7.3728-13.18912 11.75552a129.92512 129.92512 0 0 0-13.23008 13.02528c-3.76832 4.34176-5.03808 8.84736-3.76832 13.47584 3.15392 9.25696 6.43072 17.36704 9.91232 24.33024 3.44064 6.9632 5.3248 12.6976 5.65248 17.36704 0.32768 4.62848-1.88416 8.11008-6.59456 10.40384-4.7104 2.33472-13.68064 3.4816-26.91072 3.4816a147.0464 147.0464 0 0 1-17.48992-0.86016 283.97568 283.97568 0 0 0-12.6976-1.31072l-11.83744-0.86016c-4.096-0.28672-8.97024-0.16384-14.62272 0.4096a55.7056 55.7056 0 0 0-20.31616 4.38272 551.36256 551.36256 0 0 0-13.68064 6.9632 101.86752 101.86752 0 0 1-16.05632 6.47168 112.10752 112.10752 0 0 1-27.36128 3.93216 909.312 909.312 0 0 0-36.33152 1.72032 93.42976 93.42976 0 0 0-15.5648 2.17088 69.75488 69.75488 0 0 1-7.5776 1.76128 92.69248 92.69248 0 0 1-11.34592 0.4096c-5.65248 0-15.72864-2.29376-30.18752-6.9632a483.9424 483.9424 0 0 1-83.10784-35.59424c-11.30496-6.38976-16.95744-11.59168-16.95744-15.64672 0-23.7568 2.6624-42.5984 7.9872-56.48384 5.36576-13.88544 11.4688-24.00256 18.432-30.39232 3.15392-2.8672 7.3728-4.79232 12.73856-5.65248 5.3248-0.86016 11.18208-1.59744 17.44896-2.17088 6.30784-0.57344 12.12416-1.31072 17.48992-2.17088 5.3248-0.86016 9.58464-3.03104 12.73856-6.5536 6.30784-6.92224 14.00832-9.66656 23.1424-8.192 9.13408 1.4336 17.94048 3.2768 26.4192 5.61152 8.51968 2.33472 15.89248 3.19488 22.20032 2.62144 6.26688-0.57344 9.74848-6.10304 10.36288-16.50688 0-4.62848 0.94208-8.11008 2.8672-10.4448a21.79072 21.79072 0 0 1 7.04512-5.65248c2.8672-1.4336 6.47168-3.15392 10.8544-5.20192 4.42368-2.048 9.13408-5.07904 14.17216-9.13408 5.65248-4.62848 7.70048-8.97024 6.144-13.02528a37.43744 37.43744 0 0 0-7.53664-11.71456c-3.4816-3.76832-6.63552-7.82336-9.46176-12.16512-2.8672-4.34176-2.6624-8.56064 0.49152-12.61568 4.38272-6.3488 9.09312-10.97728 14.1312-13.88544 5.03808-2.8672 9.91232-5.48864 14.66368-7.7824 4.7104-2.33472 8.97024-4.83328 12.6976-7.41376a19.53792 19.53792 0 0 0 7.5776-12.61568c0.6144-1.72032 3.15392-5.07904 7.53664-9.99424a532.48 532.48 0 0 0 12.77952-14.7456c4.096-4.9152 7.3728-9.29792 9.91232-13.06624 2.49856-3.72736 1.88416-5.03808-1.88416-3.8912 7.53664-1.72032 15.5648-2.62144 24.04352-2.62144 8.51968 0 14.00832 1.76128 16.54784 5.24288 1.2288 2.29376 1.88416 3.15392 1.88416 2.58048 0-0.57344 0.94208-0.57344 2.82624 0a96.6656 96.6656 0 0 1 14.17216 7.82336 33.5872 33.5872 0 0 1 15.07328 18.67776c2.53952 7.82336 3.80928 16.22016 3.80928 25.1904 0 9.0112-0.49152 18.10432-1.4336 27.40224a102.1952 102.1952 0 0 0 0.49152 26.05056c1.2288 7.53664 3.2768 13.02528 6.144 16.50688 2.82624 3.4816 5.3248 6.5536 7.53664 9.13408a33.42336 33.42336 0 0 1 5.65248 10.8544c1.55648 4.62848 1.4336 12.16512-0.45056 22.56896-1.92512 13.35296 0 22.89664 5.65248 28.672 5.65248 5.81632 10.07616 11.0592 13.23008 15.64672 1.88416 2.33472 0.94208 5.20192-2.8672 8.68352z m74.3424 131.2768c3.03104-2.70336 7.65952-5.24288 13.96736-7.61856 6.30784-2.37568 13.06624-3.8912 20.2752-4.5056a25.55904 25.55904 0 0 1 18.0224 4.5056c4.17792 4.17792 11.264 7.45472 21.17632 9.8304 9.87136 2.4576 19.94752 5.28384 30.14656 8.56064 10.24 3.2768 19.2512 7.7824 27.0336 13.43488 7.7824 5.69344 12.288 13.9264 13.5168 24.65792a197.55008 197.55008 0 0 1-0.45056 30.06464 131.19488 131.19488 0 0 1-5.85728 27.77088 190.38208 190.38208 0 0 1-12.16512 28.71296c-5.12 9.8304-11.55072 21.0944-19.37408 33.62816a393.17504 393.17504 0 0 1-22.9376 32.768 220.20096 220.20096 0 0 1-20.2752 22.40512 184.03328 184.03328 0 0 1-20.72576 17.03936c-7.20896 5.07904-15.60576 10.60864-25.23136 16.5888a819.6096 819.6096 0 0 0-27.93472 17.48992 85.1968 85.1968 0 0 1-30.59712 12.53376c-10.81344 2.08896-22.528 0.73728-35.14368-4.01408-12.61568-4.79232-26.70592-15.27808-42.35264-31.41632a962.56 962.56 0 0 0-16.62976-16.13824 293.2736 293.2736 0 0 0-20.2752-17.48992 135.00416 135.00416 0 0 0-21.17632-13.9264c-6.92224-3.56352-12.73856-5.3248-17.57184-5.3248-4.79232 0-12.45184-1.35168-22.9376-4.05504a112.64 112.64 0 0 1-31.1296-13.43488c-10.15808-6.30784-19.0464-14.49984-26.54208-24.69888-7.49568-10.15808-10.93632-22.40512-10.36288-36.74112 0.6144-16.13824 3.44064-26.624 8.6016-31.37536a31.37536 31.37536 0 0 1 19.78368-8.11008c8.11008-0.57344 17.69472-1.18784 28.83584-1.76128 11.0592-0.6144 23.26528-4.5056 36.4544-11.6736 15.03232-0.6144 29.12256-2.08896 42.35264-4.5056 11.38688-1.76128 22.9376-4.17792 34.65216-7.168a106.496 106.496 0 0 0 29.2864-11.63264c9.0112-5.40672 12.61568-9.25696 10.81344-11.6736a21.58592 21.58592 0 0 0-9.4208-6.26688c-4.5056-1.80224-8.27392-3.60448-11.30496-5.36576-2.99008-1.80224-1.2288-5.07904 5.40672-9.87136 9.0112-7.168 15.7696-11.50976 20.2752-13.02528 4.5056-1.47456 9.17504-1.76128 13.9264-0.90112 4.83328 0.90112 11.4688 2.2528 19.8656 4.05504 8.3968 1.80224 21.2992 2.70336 38.7072 2.70336-4.79232 0-5.69344-1.35168-2.70336-4.05504z"  horiz-adv-x="1024" />
      
      <glyph glyph-name="-vaccines-fill" unicode="&#59002;" d="M259.35872-66.76480000000004a44.2368 44.2368 0 1 0-76.5952 44.2368l44.2368 76.51328a132.58752 132.58752 0 0 0-48.5376 181.16608l243.0976 421.0688 306.21696-176.82432-44.2368-76.5952-153.06752 88.43264a44.2368 44.2368 0 0 1-48.5376-73.728l4.34176-2.82624 153.10848-88.39168-44.2368-76.5952-114.81088 66.3552a44.2368 44.2368 0 0 1-48.49664-73.728l4.3008-2.8672 114.81088-66.27328-44.19584-76.5952-76.55424 44.2368a44.2368 44.2368 0 0 1-48.49664-73.728l4.3008-2.8672 70.0416-40.3456a132.58752 132.58752 0 0 0-152.49408-14.09024l-44.2368-76.55424zM592.40448 863.76448l229.70368-132.58752c23.79776-13.76256 30.06464-32.23552 18.8416-55.37792l-2.70336-5.03808c-14.7456-25.51808-34.816-30.88384-60.37504-16.1792l-76.55424 44.2368-44.19584-76.5952 191.40608-110.46912a44.2368 44.2368 0 1 0-44.2368-76.5952L345.04704 700.4159999999999a44.2368 44.2368 0 0 0 44.19584 76.5952l191.36512-110.51008 44.2368 76.55424-76.5952 44.19584c-23.79776 13.7216-30.1056 32.19456-18.8416 55.33696l2.6624 5.03808c14.7456 25.51808 34.85696 30.88384 60.37504 16.1792z"  horiz-adv-x="1024" />
      
      <glyph glyph-name="-activity-fill" unicode="&#59000;" d="M266.6496 206.15168000000006s105.2672 131.4816 269.1072 59.8016c64.38912-35.88096 122.88-89.7024 222.4128-89.7024 99.45088 0 163.84 59.8016 163.84 59.8016V756.03968s-146.30912-149.42208-327.68-23.92064c-46.85824 35.84-128.77824 71.68-193.1264 53.78048-70.20544-17.94048-134.59456-41.82016-134.59456-41.82016v-537.92768zM117.63712 790.65088H168.3456c8.23296 0 14.90944-6.63552 14.90944-14.86848v-789.42208c0-8.192-6.67648-14.86848-14.90944-14.86848H117.67808a14.90944 14.90944 0 0 0-14.90944 14.86848V775.7824c0 8.192 6.67648 14.90944 14.90944 14.90944z"  horiz-adv-x="1024" />
      
      <glyph glyph-name="-admission-fill" unicode="&#58997;" d="M476.03712 150.97856000000002v12.82048c0 3.39968 1.2288 21.13536 1.76128 25.68192H240.55808a18.51392 18.51392 0 0 0-18.51392 18.55488v38.2976c0 10.24 8.27392 18.51392 18.51392 18.51392h260.5056c15.64672 37.4784 59.47392 77.45536 93.34784 97.28a217.41568 217.41568 0 0 0 111.90272 29.77792c4.3008 0 8.92928-0.12288 13.88544-0.45056 4.83328-0.2048 9.70752-0.69632 14.58176-1.2288V601.2927999999999h-118.784c-15.1552 0-28.18048 3.52256-39.07584 10.60864a89.41568 89.41568 0 0 0-26.4192 26.4192 116.03968 116.03968 0 0 0-15.03232 34.4064 139.6736 139.6736 0 0 0-4.9152 34.97984V814.08H153.3952a29.696 29.696 0 0 1-21.58592-9.29792 32.68608 32.68608 0 0 1-8.88832-22.65088v-627.9168L122.88 46.89919999999995c0-8.23296 2.99008-16.384 8.92928-22.69184a29.81888 29.81888 0 0 1 21.58592-9.25696H225.6896c0.73728-0.12288 1.4336-0.12288 2.21184-0.12288h288.84992a237.568 237.568 0 0 0-30.06464 63.40608 245.84192 245.84192 0 0 0-10.60864 72.74496z m-235.52 331.07968h347.29984c10.24 0 18.51392-8.27392 18.51392-18.51392v-38.0928c0-10.24-8.31488-18.51392-18.51392-18.51392H240.55808a18.51392 18.51392 0 0 0-18.51392 18.51392v38.0928c0 10.24 8.27392 18.51392 18.51392 18.51392z m646.3488-267.59168a193.04448 193.04448 0 0 1-38.62528 59.51488 184.56576 184.56576 0 0 1-56.9344 40.46848 166.05184 166.05184 0 0 1-70.00064 14.9504c-24.45312 0-47.47264-4.99712-69.14048-14.9504-21.7088-9.91232-40.71424-23.42912-56.9344-40.46848-16.30208-16.9984-29.20448-36.864-38.7072-59.51488a185.26208 185.26208 0 0 1-14.21312-72.41728c0-26.09152 4.7104-50.54464 14.21312-73.19552 9.50272-22.69184 22.40512-42.55744 38.7072-59.51488 16.22016-17.03936 35.2256-30.55616 56.9344-40.42752 21.7088-9.99424 44.68736-14.99136 69.14048-14.99136 24.9856 0 48.3328 4.99712 70.0416 14.99136 21.62688 9.8304 40.59136 23.38816 56.9344 40.42752 16.22016 16.95744 29.16352 36.864 38.62528 59.51488 9.4208 22.65088 14.21312 47.104 14.21312 73.19552 0 25.6-4.79232 49.72544-14.21312 72.41728z m-135.12704-58.73664v-129.2288a28.18048 28.18048 0 0 0-28.0576-28.38528 28.30336 28.30336 0 0 0-28.0576 28.38528v129.2288H608.6656l115.83488 115.46624 115.79392-115.46624h-88.55552z m-108.9536 499.99872h91.99616V782.1312c0 8.192-2.99008 16.384-8.92928 22.65088A29.696 29.696 0 0 1 704.26624 814.08h-122.51136v-94.49472c0-16.34304 5.9392-32.64512 17.89952-45.13792 11.8784-12.36992 27.52512-18.71872 43.13088-18.71872z"  horiz-adv-x="1024" />
      
      <glyph glyph-name="-democratic-fill" unicode="&#58993;" d="M923.4432 255.09888a276.80768 276.80768 0 0 0-38.01088-179.93728l36.2496-27.68896c-21.2992-23.552-61.0304-66.23232-62.09536-66.23232-1.10592 0-21.87264 23.63392-32.768 33.3824a20.64384 20.64384 0 0 1-16.13824 3.4816 318.34112 318.34112 0 0 0-281.51808 5.7344l-35.71712-42.5984c-5.20192 0-51.8144 24.7808-46.03904 47.84128 5.16096 21.95456 23.01952 27.68896 47.18592 28.83584l-32.768 42.68032 43.13088 36.94592a234.53696 234.53696 0 0 1 249.856-54.23104l-161.21856 146.51392-30.5152-33.42336-66.7648 67.50208 109.3632 110.1824c4.01408 4.096 13.84448 4.096 20.15232 5.20192 6.30784 1.18784 20.15232 0 29.98272 0 9.74848 0.94208 19.41504 2.82624 28.75392 5.65248h5.7344l32.27648-30.55616-50.66752-53.0432 142.66368-155.72992c116.85888 128.6144-118.5792 292.98688-118.5792 292.98688a226.34496 226.34496 0 0 0 227.45088-183.5008z m-403.53792 141.63968c10.36288-2.8672 19.00544-5.7344 10.93632-13.27104l-153.10848-141.35296c10.36288-15.5648 41.45152-57.67168 49.47968-69.79584a24.20736 24.20736 0 0 0 0-19.0464c-24.1664-50.09408-49.9712-99.77856-75.3664-149.38112 0-4.05504-8.64256-10.36288-12.6976-10.36288-57.7536-2.048-115.58912 1.6384-172.6464 10.93632-54.10816 10.97728-59.88352 26.54208-59.88352 77.29152a375.88992 375.88992 0 0 0 86.34368 245.18656 207.54432 207.54432 0 0 0 161.75104 69.79584s63.97952 1.18784 112.4352 1.26976h15.48288c19.57888-0.08192 34.32448-0.45056 37.2736-1.26976z m-92.65152 403.70176A178.62656 178.62656 0 0 0 605.71648 621.568c0-98.7136-79.872-178.7904-178.46272-178.7904A178.62656 178.62656 0 0 0 248.79104 621.568 178.9952 178.9952 0 0 0 301.056 748.0524800000001a178.25792 178.25792 0 0 0 126.19776 52.38784z"  horiz-adv-x="1024" />
      
      <glyph glyph-name="-organization-fill" unicode="&#58990;" d="M867.45088 752.4352l67.95264-136.47872c5.12-10.36288 7.82336-21.74976 7.82336-33.34144v-544.3584c0.08192-43.33568 0-43.4176-43.008-43.29472h-774.144c-43.008 0-43.008 0-43.008 43.25376V582.57408c0 11.50976 2.70336 22.9376 7.82336 33.25952l67.95264 136.6016a37.39648 37.39648 0 0 0 33.46432 20.76672h641.67936c14.17216 0 27.15648-8.02816 33.46432-20.76672z m-359.6288-287.25248l-154.0096-154.78784a7.49568 7.49568 0 0 1 5.28384-12.73856h103.54688c4.096 0 7.45472-3.35872 7.45472-7.49568v-158.02368c0-4.096 3.35872-7.45472 7.49568-7.45472h71.10656c4.13696 0 7.49568 3.31776 7.49568 7.45472V290.2016c0 4.096 3.35872 7.49568 7.45472 7.49568h103.54688a7.49568 7.49568 0 0 1 5.3248 12.73856l-154.09152 154.78784a7.49568 7.49568 0 0 1-10.56768 0z m284.59008 221.5936H233.8816a18.71872 18.71872 0 0 1-16.75264-10.40384l-24.41216-49.152a18.71872 18.71872 0 0 1 16.75264-27.0336h607.39584a18.71872 18.71872 0 0 1 16.71168 27.0336l-24.41216 49.152a18.71872 18.71872 0 0 1-16.75264 10.36288z"  horiz-adv-x="1024" />
      
      <glyph glyph-name="-recovery-fill" unicode="&#58989;" d="M605.55264 814.08c9.33888 0 16.91648-7.5776 16.91648-16.91648v-47.18592c0-9.33888 7.5776-16.91648 16.91648-16.91648h226.54976c9.33888 0 16.91648-7.5776 16.91648-16.91648v-342.75328a259.85024 259.85024 0 0 1-179.48672 71.35232c-143.07328 0-259.072-114.60608-259.072-256 0-77.49632 34.816-146.92352 89.9072-193.90464L139.75552-5.1200000000000045A16.91648 16.91648 0 0 0 122.88 11.796479999999974V716.1856c0 9.33888 7.5776 16.91648 16.91648 16.91648H354.304a16.91648 16.91648 0 0 1 16.87552 16.91648V797.1635200000001c0 9.33888 7.5776 16.91648 16.91648 16.91648h217.41568z m99.36896-431.47264c108.1344-0.53248 195.66592-86.99904 196.1984-193.86368C901.12 81.71519999999998 813.2608-5.1200000000000045 704.9216-5.1200000000000045s-196.1984 86.8352-196.1984 193.86368c0 107.06944 87.8592 193.86368 196.1984 193.86368z m36.90496-84.7872c-63.73376 10.40384-111.4112-27.72992-126.27968-79.0528l-23.63392 4.62848c-6.5536 1.6384-10.15808-2.33472-7.86432-8.6016l27.77088-77.4144a7.3728 7.3728 0 0 1 13.02528-2.99008l59.8016 57.18016c4.9152 4.79232 3.56352 9.8304-3.11296 11.42784l-17.85856 6.5536c10.81344 34.816 42.51648 46.73536 72.66304 40.67328 30.18752-6.144 50.91328-33.5872 50.91328-61.44s-28.50816-60.12928-65.3312-60.74368c-0.49152 0-0.98304 0.28672-1.47456 0.28672-8.76544-0.49152-22.56896-9.78944-20.6848-25.55904 1.92512-15.81056 16.13824-20.6848 25.06752-21.21728 54.0672 0 104.448 44.52352 109.52704 97.6896 5.03808 53.20704-28.75392 108.17536-92.52864 118.5792z m-290.69312 137.05216H244.5312a6.92224 6.92224 0 0 1-6.5536-4.66944l-0.32768-2.17088v-54.59968c0-3.03104 1.96608-5.57056 4.7104-6.51264l2.17088-0.32768h206.56128a6.92224 6.92224 0 0 1 6.5536 4.66944l0.36864 2.17088v54.59968a6.88128 6.88128 0 0 1-6.9632 6.84032z m295.15776 121.07776H243.13856a6.92224 6.92224 0 0 1-6.5536-4.66944l-0.32768-2.17088v-54.59968c0-3.03104 1.96608-5.57056 4.7104-6.47168l2.17088-0.36864H746.2912a6.92224 6.92224 0 0 1 6.5536 4.66944l0.36864 2.17088V549.0688a6.88128 6.88128 0 0 1-6.92224 6.84032z"  horiz-adv-x="1024" />
      
      <glyph glyph-name="-cadre-fill" unicode="&#58984;" d="M715.306667 393.984c-112.426667 0-203.52-89.173333-203.52-199.168 0-110.037333 91.093333-199.253333 203.52-199.253333s203.562667 89.216 203.562666 199.253333c0 109.994667-91.136 199.168-203.52 199.168z m104.021333-227.242667h-51.712v-75.818666c0-17.066667-8.789333-25.685333-26.197333-25.685334h-51.2a27.050667 27.050667 0 0 0-17.749334 8.234667 26.410667 26.410667 0 0 0-8.405333 17.493333v75.776h-55.808a26.069333 26.069333 0 0 0-12.373333 2.986667 21.333333 21.333333 0 0 0-9.088 9.514667 22.656 22.656 0 0 0-2.688 12.8 20.48 20.48 0 0 0 6.741333 12.245333l107.648 110.037333a36.821333 36.821333 0 0 0 7.381333 5.589334 25.813333 25.813333 0 0 0 10.112 2.986666c4.053333 1.834667 7.381333 2.005333 10.069334 0.64a29.610667 29.610667 0 0 0 7.381333-5.248l107.648-114.005333c6.101333-7.04 7.253333-15.445333 3.498667-25.045333-3.797333-9.6-12.202667-13.866667-25.258667-12.501334z m-363.392 33.28c0 132.224 106.752 247.68 257.194667 247.68 84.736 0 152.490667-35.114667 195.626666-92.16 5.248-7.04 11.477333-5.162667 11.477334 3.541334V591.8720000000001a32.426667 32.426667 0 0 1-11.52 24.618667L725.76 772.352c-10.453333 7.936-19.882667 7.936-42.026667 7.936H194.218667c-23.765333 0-41.984-10.112-41.984-43.093333V15.360000000000014c0-16.554667 9.514667-45.738667 41.984-45.738667h401.92c10.069333 0 10.069333 11.264 3.882666 13.312-83.541333 27.904-144.085333 111.616-144.085333 217.045334z"  horiz-adv-x="1066" />
      
      <glyph glyph-name="-punishment-fill" unicode="&#58980;" d="M859.434667 383.23199999999997a24.874667 24.874667 0 0 1-17.024-6.912l-34.986667-34.346667a11.648 11.648 0 0 1 0-16.64l74.581333-73.045333a11.648 11.648 0 0 1 16.768 0.469333l32.853334 36.309334a22.997333 22.997333 0 0 1 0 33.194666l-55.125334 54.058667a23.637333 23.637333 0 0 1-17.066666 6.912zM212.906667 810.666667C85.333333 810.666667 85.333333 810.666667 85.333333 685.696V82.34666700000002C85.333333-42.66666699999996 85.333333-42.66666699999996 212.906667-42.66666699999996h156.757333a19.413333 19.413333 0 0 1 19.413333 19.413334v76.501333a38.826667 38.826667 0 0 0 11.349334 27.434667l413.226666 414.165333a38.826667 38.826667 0 0 1 11.306667 27.392V685.653333C824.96 810.666667 824.96 810.666667 697.301333 810.666667H212.906667z m548.949333-508.330667a11.648 11.648 0 0 0 16.341333 0l75.093334-73.728a11.690667 11.690667 0 0 0 0.085333-16.554667l-253.866667-251.349333a11.648 11.648 0 0 0-8.234666-3.370667h-75.52a11.648 11.648 0 0 0-11.605334 11.648v73.344c0 3.114667 1.237333 6.101333 3.413334 8.277334z m-246.826667 64.128c4.266667 0 7.68-3.498667 7.68-7.808v-62.165333c0-4.266667-3.413333-7.765333-7.68-7.765334H266.922667c-4.266667 0-7.68 3.456-7.68 7.765334v62.165333c0 4.309333 3.413333 7.808 7.68 7.808h248.064z m106.410667 208.426667c4.266667 0 7.68-3.456 7.68-7.765334v-62.165333c0-4.309333-3.413333-7.808-7.68-7.808H266.922667c-4.266667 0-7.68 3.498667-7.68 7.808V567.125333c0 4.266667 3.413333 7.765333 7.68 7.765334h354.474666z"  horiz-adv-x="1024" />
      
      <glyph glyph-name="-apartment-fill" unicode="&#58979;" d="M884.3264 794.58304c20.60288 0 37.2736-16.5888 37.2736-37.0688v-704.1024c0-20.48-16.67072-37.0688-37.2736-37.0688H139.6736a37.15072 37.15072 0 0 0-37.2736 37.0688V757.51424c0 20.48 16.67072 37.0688 37.2736 37.0688h744.6528zM562.62656 608.8704c-50.62656 49.5616-42.51648 57.344-101.1712 0l-177.3568-173.42464c-45.2608-44.2368-37.4784-49.11104-5.77536-49.47968H331.776v-169.04192c-0.12288-25.51808-0.08192-25.51808 20.23424-25.51808l97.73056-0.04096c13.1072-0.24576 13.1072-1.26976 13.1072 19.49696v120.4224c0.12288 12.57472 1.35168 15.7696 16.384 15.7696h65.536c14.86848 0 16.34304-5.20192 16.384-13.84448v-8.47872l0.65536-48.25088 0.24576-17.8176c0.28672-20.60288 0.53248-39.81312 0.53248-47.80032 0-19.456 0-19.456 14.9504-19.456h82.08384c32.60416 0 32.60416 0 32.60416 38.912v155.648h36.6592c39.97696-0.4096 67.95264-6.144 11.0592 49.47968z"  horiz-adv-x="1024" />
      
      <glyph glyph-name="-bedroom-fill" unicode="&#58974;" d="M671.104 506.624c243.2 0 243.2-162.133333 243.2-162.133333v-60.8a20.266667 20.266667 0 0 0-20.266667-20.266667h-202.666666a20.266667 20.266667 0 0 0-20.266667 20.266667v60.8a235.904 235.904 0 0 1-46.634667 129.706666 213.205333 213.205333 0 0 1-24.32 26.752c23.466667 3.712 47.189333 5.632 70.954667 5.674667m-324.266667 0c243.2 0 243.2-162.133333 243.2-162.133333v-60.8a20.266667 20.266667 0 0 0-20.266666-20.266667H123.904a20.266667 20.266667 0 0 0-20.266667 20.266667v60.8s0 162.133333 243.2 162.133333z m40.533334-283.733333v-81.066667h243.2v81.066667l121.6-121.6-121.6-121.6v81.066666h-243.2v-81.066666l-121.6 121.6 121.6 121.6m-40.533334 567.466666a121.6 121.6 0 1 1 0-243.2 121.6 121.6 0 0 1 0 243.2m324.266667 0a121.6 121.6 0 1 1 0-243.2 121.6 121.6 0 0 1 0 243.2z"  horiz-adv-x="1066" />
      
      <glyph glyph-name="-safe-epidemic-fill" unicode="&#59417;" d="M512.180706 681.3816469999999a301.236706 301.236706 0 0 0 281.6-194.56 188.235294 188.235294 0 0 0-48.248471-370.085647H278.467765a188.175059 188.175059 0 0 0-47.887059 370.206118 301.176471 301.176471 0 0 0 281.6 194.439529z m-39.273412-211.184941L396.589176 359.18305899999996H295.152941a4.035765 4.035765 0 0 1-4.035765-4.035765v-44.15247c0-2.228706 1.807059-4.035765 4.035765-4.035765h128.90353l41.984 61.138823 85.052235-168.297411 55.055059 112.941176H728.847059c2.228706 0 4.035765 1.807059 4.035765 3.975529v44.212706a4.035765 4.035765 0 0 1-4.035765 3.97553H573.44l-23.190588-47.646118-77.342118 152.997647z"  horiz-adv-x="1024" />
      
      <glyph glyph-name="-safe-healt-fill" unicode="&#59416;" d="M657.528471 763.181176a258.710588 258.710588 0 0 0 181.669647-73.84847c23.612235-23.070118 42.405647-50.416941 55.476706-80.715294a248.771765 248.771765 0 0 0 20.419764-99.267765c0-32.527059-6.625882-66.258824-19.817412-100.713412a446.343529 446.343529 0 0 0-46.983529-88.666353c-31.924706-47.646118-75.896471-97.400471-130.469647-147.757176a1477.993412 1477.993412 0 0 0-183.838118-143.540706l-23.070117-14.817882a31.322353 31.322353 0 0 0-33.67153 0L454.174118 28.61176499999999a1452.272941 1452.272941 0 0 0-183.777883 143.540706c-54.573176 50.356706-98.544941 100.111059-130.529882 147.757176a451.764706 451.764706 0 0 0-46.983529 88.666353 282.503529 282.503529 0 0 0-19.757177 100.713412 251.904 251.904 0 0 0 75.896471 179.983059A258.590118 258.590118 0 0 0 330.691765 763.181176a260.156235 260.156235 0 0 0 163.418353-57.584941 260.276706 260.276706 0 0 0 163.418353 57.584941z m-139.986824-210.823529h-46.802823a7.830588 7.830588 0 0 1-7.830589-7.830588v-106.496H356.472471a7.830588 7.830588 0 0 1-7.830589-7.830588v-46.742589c0-4.336941 3.493647-7.830588 7.830589-7.830588h106.556235v-106.556235c0-4.276706 3.493647-7.770353 7.770353-7.830588h46.802823a7.830588 7.830588 0 0 1 7.830589 7.830588v106.61647h106.496a7.830588 7.830588 0 0 1 7.830588 7.770353v46.742589a7.830588 7.830588 0 0 1-7.830588 7.830588H525.312V544.5872939999999a7.830588 7.830588 0 0 1-7.770353 7.830588z"  horiz-adv-x="1024" />
      
      <glyph glyph-name="-safe-recording-fill" unicode="&#59415;" d="M832 810.666667a32 32 0 0 0 32-32v-789.333334A32 32 0 0 0 832-42.66666699999996H192a32 32 0 0 0-32 32v789.333334A32 32 0 0 0 192 810.666667h640z m-140.8-479.146667H332.8a12.8 12.8 0 0 1-12.8-12.8v-46.08a12.8 12.8 0 0 1 12.8-12.8h358.4a12.8 12.8 0 0 1 12.8 12.8v46.08a12.8 12.8 0 0 1-12.8 12.8z m-149.333333 207.36h-209.066667a12.8 12.8 0 0 1-12.8-12.8v-46.08a12.8 12.8 0 0 1 12.8-12.8h209.066667a12.8 12.8 0 0 1 12.8 12.8v46.08a12.8 12.8 0 0 1-12.8 12.8z"  horiz-adv-x="1024" />
      
      <glyph glyph-name="-huowujia-fill" unicode="&#59414;" d="M599.274667 757.333333a32 32 0 0 0 31.872-28.928L631.253333 725.333333v-245.333333H885.333333a32 32 0 0 0 31.850667-28.928L917.333333 448v-437.333333H106.752V725.333333A32 32 0 0 0 135.68 757.184l3.072 0.149333h460.522667z m173.333333-505.6h-68.266667a8.533333 8.533333 0 0 1-8.533333-8.533333v-59.733333c0-4.693333 3.84-8.533333 8.533333-8.533334h68.266667a8.533333 8.533333 0 0 1 8.533333 8.533334v59.733333a8.533333 8.533333 0 0 1-8.533333 8.533333z m-326.784 0h-153.6a8.533333 8.533333 0 0 1-8.533333-8.533333v-59.733333c0-4.693333 3.818667-8.533333 8.533333-8.533334h153.6a8.533333 8.533333 0 0 1 8.533333 8.533334v59.733333a8.533333 8.533333 0 0 1-8.533333 8.533333z m0 170.666667h-153.6a8.533333 8.533333 0 0 1-8.533333-8.533333v-59.733334c0-4.693333 3.818667-8.533333 8.533333-8.533333h153.6a8.533333 8.533333 0 0 1 8.533333 8.533333v59.733334a8.533333 8.533333 0 0 1-8.533333 8.533333z m0 170.666667h-153.6a8.533333 8.533333 0 0 1-8.533333-8.533334v-59.733333c0-4.693333 3.818667-8.533333 8.533333-8.533333h153.6a8.533333 8.533333 0 0 1 8.533333 8.533333v59.733333a8.533333 8.533333 0 0 1-8.533333 8.533334z"  horiz-adv-x="1024" />
      
      <glyph glyph-name="-courier" unicode="&#59412;" d="M906.666667 746.666667A32 32 0 0 0 938.666667 714.666667v-258.133334a8.533333 8.533333 0 0 0-8.533334-8.533333H896v-416a32 32 0 0 0-32-32h-704A32 32 0 0 0 128 32V448H93.866667a8.533333 8.533333 0 0 0-8.533334 8.533333V714.666667A32 32 0 0 0 117.333333 746.666667h789.333334z m-82.346667-298.666667H199.658667l0.021333-376.32h624.64V448zM755.2 213.33333300000004a12.8 12.8 0 0 0 12.8-12.8V149.33333300000004a12.8 12.8 0 0 0-12.8-12.8h-160.64a12.8 12.8 0 0 0-12.8 12.8v51.2a12.8 12.8 0 0 0 12.8 12.8h160.64z m111.786667 461.653334H157.013333L156.992 533.333333H866.986667v141.653334z"  horiz-adv-x="1024" />
      
      <glyph glyph-name="-zoushi-shang_fill" unicode="&#59378;" d="M164.57142857 476.992h170.688a32 32 0 0 0 32-32v-434.304H132.57142857V444.992a32 32 0 0 0 32 32z m298.688 280.32h170.624a32 32 0 0 0 32-32v-714.624H431.25942857V725.312a32 32 0 0 0 32 32z m298.624-140.416H932.57142857a32 32 0 0 0 32-32v-574.208H729.88342857V584.896a32 32 0 0 0 32 32z"  horiz-adv-x="1088" />
      
      <glyph glyph-name="-dongtai" unicode="&#59372;" d="M924.224 759.253333a21.333333 21.333333 0 0 0 29.077333-24.085333l-149.717333-711.125333a21.333333 21.333333 0 0 0-32.853333-13.226667l-236.992 161.237333-127.872-135.253333a21.333333 21.333333 0 0 0-35.306667 6.698667l-103.488 258.133333-182.954667 68.224a21.333333 21.333333 0 0 0-0.725333 39.68z m-68.096-137.685333L356.330667 271.59466699999996l51.477333-128.405334 115.797333 122.453334 225.322667-153.322667 107.2 509.248z m-196.096-49.792l-431.232-179.370667 93.013333-34.688 7.125334-17.792 331.093333 231.850667z"  horiz-adv-x="1024" />
      
      <glyph glyph-name="-dongtai_fill" unicode="&#59373;" d="M98.581333 370.00533299999995l182.954667-68.245333 103.466667-258.112a21.333333 21.333333 0 0 1 35.328-6.72l127.872 135.253333 236.970666-161.237333a21.333333 21.333333 0 0 1 32.874667 13.226667l149.717333 711.146666A21.333333 21.333333 0 0 1 938.666667 759.424L97.856 409.664a21.333333 21.333333 0 0 1 0.725333-39.68z m727.082667 246.570667l-398.421333-442.453333-58.026667 166.528 456.448 275.925333z"  horiz-adv-x="1024" />
      
      <glyph glyph-name="-renshi_fill" unicode="&#59374;" d="M512.490667 789.333333c73.002667-0.128 185.92-47.210667 185.92-157.546666 0-23.68-4.629333-52.949333-3.178667-66.688 1.109333-11.477333 2.453333-34.304-0.96-47.936-6.229333-25.216-21.866667-114.645333-59.456-154.197334-14.037333-14.826667-19.050667-32.149333-19.050667-48.768 0-41.6 4.16-65.024 12.693334-70.528 2.816-2.858667 37.354667-15.893333 103.765333-39.445333 2.944-1.429333 6.357333-2.752 10.624-4.181333 108.650667-40.042667 165.909333-73.877333 171.52-101.610667l2.645333-106.666667v-0.298666a12.8 12.8 0 0 0-12.8-12.8H119.466667a12.8 12.8 0 0 0-12.48 13.12l2.645333 106.666666c5.610667 27.605333 62.741333 61.546667 171.52 101.589334 4.266667 1.429333 7.808 2.752 10.624 4.181333 66.410667 23.552 100.949333 36.693333 103.765333 39.445333 8.426667 5.504 12.693333 29.056 12.693334 70.528 0 16.618667-5.013333 33.941333-19.050667 48.768-37.589333 39.552-53.226667 128.853333-59.456 154.197334-3.413333 13.632-2.197333 36.330667-0.96 47.936 1.344 13.610667-3.2 43.029333-3.2 66.688 0 110.336 112.938667 157.312 185.941333 157.546666z m12.330666-541.141333h-25.877333a2.944 2.944 0 0 1-2.965333-2.197333l-25.514667-142.186667a3.413333 3.413333 0 0 1 0.832-3.157333l38.634667-38.826667c0.597333-0.64 1.301333-0.938667 2.133333-0.938667a2.986667 2.986667 0 0 1 2.133333 0.938667l38.506667 38.826667c0.853333 0.853333 1.066667 2.005333 0.853333 3.157333l-25.770666 142.186667a3.178667 3.178667 0 0 1-2.965334 2.197333z"  horiz-adv-x="1024" />
      
      <glyph glyph-name="-zhenggaicuoshi_fill" unicode="&#59375;" d="M861.461333 647.082667c-0.298667 0.298667-61.098667-59.797333-182.101333-180.608l-84.906667 84.906666 180.906667 180.906667a242.56 242.56 0 0 1-296.789333-36.693333 244.416 244.416 0 0 1-63.402667-235.818667l1.792-6.698667L133.461333 169.685333a16.064 16.064 0 0 1 0-22.613333l141.397334-141.397333c6.186667-6.186667 16.405333-6.186667 22.613333 0l283.306667 283.306666 6.677333-1.792A244.266667 244.266667 0 0 1 823.466667 350.48533299999997a244.096 244.096 0 0 1 37.994666 296.597334z"  horiz-adv-x="1024" />
      
      <glyph glyph-name="-zhenggaicuoshi" unicode="&#59376;" d="M875.968 663.424a9.578667 9.578667 0 0 1-2.005333 2.517333 12.8 12.8 0 0 1-18.090667 0l-172.309333-172.309333-67.882667 67.904 172.373333 172.394667a12.736 12.736 0 0 1-2.496 20.010666A256.384 256.384 0 0 1 474.282667 714.24a256.426667 256.426667 0 0 1-66.496-247.402667L114.773333 173.82399999999996c-2.986667-2.986667-2.794667-7.893333 0.298667-10.986667l169.706667-169.706666c3.093333-3.093333 8.106667-3.306667 10.986666-0.298667l292.906667 292.906667A256.256 256.256 0 0 1 836.266667 352.12800000000004a256.384 256.384 0 0 1 39.701333 311.296z m-90.602667-260.288a184.277333 184.277333 0 0 0-214.613333-33.6l-8.789333-8.810667-0.085334 0.106667-274.005333-274.090667-79.210667 79.189334 230.101334 230.101333s0-0.106667 0.106666-0.106667l52.8 52.8a184.277333 184.277333 0 0 0 33.6 214.613334 184.213333 184.213333 0 0 0 144 53.504l-132.906666-132.8a32.042667 32.042667 0 0 1 0-45.312l124.501333-124.501334a32.042667 32.042667 0 0 1 45.312 0l132.8 132.8a184.426667 184.426667 0 0 0-53.610667-143.893333z"  horiz-adv-x="1024" />
      
      <glyph glyph-name="-renshi" unicode="&#59377;" d="M511.530667 788.437333l6.656-0.064c105.6-2.624 206.250667-73.514667 206.250666-185.024 0-6.357333-0.277333-13.12-0.810666-21.034666l-1.749334-22.656c-0.426667-5.546667-0.64-9.216-0.704-11.797334v-2.624l0.704-8.704c1.408-18.666667 1.088-36.394667-2.410666-50.368-0.448-1.813333-3.925333-17.408-6.186667-27.264l-3.733333-15.296a523.306667 523.306667 0 0 0-11.477334-39.253333c-11.52-33.941333-25.386667-61.034667-43.712-80.32-5.696-6.037333-8.213333-12.949333-8.213333-21.546667 0-17.578667 0.853333-30.890667 2.346667-39.552l9.344-3.669333 25.429333-9.472 49.344-17.728 4.522667-1.92 2.24-0.874667 3.733333-1.322666c116.885333-43.093333 176.192-78.186667 185.216-122.773334l0.64-3.072 2.56-103.509333-0.106667-4.522667a48.64 48.64 0 0 0-48.533333-45.312H141.12l-4.522667 0.213334a48.64 48.64 0 0 0-44.096 49.621333l2.56 103.509333 0.64 3.114667c8.149333 40.149333 57.429333 72.810667 153.365334 110.592l16.426666 6.357333 16.405334 6.122667 1.642666 0.576 2.346667 0.853333 5.504 2.346667 21.973333 7.829333 30.357334 11.008 22.4 8.384 9.344 3.669334c1.536 8.725333 2.389333 22.058667 2.389333 39.509333 0 8.618667-2.517333 15.530667-8.192 21.525333-18.368 19.328-32.234667 46.442667-43.733333 80.384a558.08 558.08 0 0 0-14.101334 49.792l-8.448 37.397334c-2.773333 15.253333-2.517333 34.346667-0.64 52.117333l0.042667 0.704c0.064 0.853333 0.064 1.984 0 3.52l-0.490667 8.746667-1.28 16.768-1.002666 14.592c-0.298667 5.546667-0.448 10.56-0.448 15.338666 0 113.472 104.128 184.746667 211.968 185.088z m0.938666-71.68l-5.76-0.085333c-70.826667-2.261333-135.466667-48-135.466666-113.322667 0-4.565333 0.213333-9.856 0.64-16.341333l2.261333-30.293333c0.490667-7.594667 0.533333-12.010667 0.213333-16.682667l-0.661333-7.402667c-0.938667-11.52-0.853333-24.149333 0.426667-29.333333l6.293333-27.584 3.434667-14.250667c3.114667-12.245333 6.357333-23.466667 9.962666-34.069333 8.448-24.981333 18.069333-43.776 27.861334-54.08l3.626666-4.053333c16.426667-19.2 24.234667-42.304 24.234667-66.773334 0-53.546667-5.077333-81.706667-28.309333-96.789333-6.464-4.16-17.109333-8.853333-37.76-16.64l-20.309334-7.466667-45.952-16.426666a106.069333 106.069333 0 0 0-11.52-4.48c-49.6-18.261333-87.082667-34.965333-112-49.728-11.264-6.677333-19.52-12.714667-24.64-17.749334l-2.56-2.56-1.749333-70.186666h694.528l-1.728 70.208-2.581333 2.581333c-5.12 5.034667-13.397333 11.072-24.661334 17.728-24.896 14.72-62.336 31.424-110.997333 49.365333a124.885333 124.885333 0 0 0-12.309333 4.757334c-71.168 25.237333-93.632 33.472-104.384 40.618666l-2.688 1.898667c-19.157333 14.250667-24.576 38.677333-25.344 82.432l-0.106667 12.416c0 26.24 8.96 50.901333 27.904 70.890667l2.432 2.730666c8.896 10.688 17.621333 28.373333 25.386667 51.285334 4.48 13.269333 8.426667 27.498667 12.266666 43.498666l7.829334 34.496c0.96 6.421333 0.789333 19.349333-0.32 30.997334l-0.448 5.397333a127.125333 127.125333 0 0 0 0.298666 15.146667l2.133334 27.797333 0.64 11.264c0.128 2.688 0.170667 5.12 0.170666 7.381333 0 66.901333-67.754667 113.28-140.288 113.408z m12.352-468.565333c1.301333 0 2.602667-0.938667 2.965334-2.197333l25.749333-142.186667a3.413333 3.413333 0 0 0-0.832-3.157333l-38.528-38.826667a2.986667 2.986667 0 0 0-2.133333-0.938667 2.816 2.816 0 0 0-2.112 0.938667l-38.634667 38.826667c-0.853333 0.853333-1.066667 2.005333-0.853333 3.157333l25.536 142.186667a2.944 2.944 0 0 0 2.965333 2.197333H524.8z"  horiz-adv-x="1024" />
      
      <glyph glyph-name="-renwu_fill" unicode="&#59370;" d="M834.005333 205.33333300000004v161.344h-288V458.666667h109.994667c8.810667 0 16 7.189333 16 16V738.666667a16.042667 16.042667 0 0 1-16 16h-288a16.042667 16.042667 0 0 1-16-16V474.666667c0-8.810667 7.189333-16 16-16h109.994667v-92.010667h-288v-161.322667H136A8.021333 8.021333 0 0 1 128 197.33333300000004V21.33333300000004c0-4.394667 3.605333-8 8-8h176A8.021333 8.021333 0 0 1 320 21.33333300000004v176a8.021333 8.021333 0 0 1-8 8h-53.994667V298.66666699999996h219.989334v-93.333334h-53.994667a8.021333 8.021333 0 0 1-8-8V21.33333300000004c0-4.394667 3.605333-8 8-8h176A8.021333 8.021333 0 0 1 608 21.33333300000004v176a8.021333 8.021333 0 0 1-8 8h-53.994667V298.66666699999996h219.989334v-93.333334h-53.994667a8.021333 8.021333 0 0 1-8-8V21.33333300000004c0-4.394667 3.605333-8 8-8h176A8.021333 8.021333 0 0 1 896 21.33333300000004v175.466667a8.533333 8.533333 0 0 1-8.533333 8.533333h-53.461334z"  horiz-adv-x="1024" />
      
      <glyph glyph-name="-renwu" unicode="&#59371;" d="M888 205.33333300000004h-53.994667v161.344h-288V458.666667h109.994667c8.810667 0 16 7.189333 16 16V738.666667a16.042667 16.042667 0 0 1-16 16h-288a16.042667 16.042667 0 0 1-16-16V474.666667c0-8.810667 7.189333-16 16-16h109.994667v-92.010667h-288v-161.322667H136A8.021333 8.021333 0 0 1 128 197.33333300000004V21.33333300000004c0-4.394667 3.605333-8 8-8h176A8.021333 8.021333 0 0 1 320 21.33333300000004v176a8.021333 8.021333 0 0 1-8 8h-53.994667V298.66666699999996h219.989334v-93.333334h-53.994667a8.021333 8.021333 0 0 1-8-8V21.33333300000004c0-4.394667 3.605333-8 8-8h176A8.021333 8.021333 0 0 1 608 21.33333300000004v176a8.021333 8.021333 0 0 1-8 8h-53.994667V298.66666699999996h219.989334v-93.333334h-53.994667a8.021333 8.021333 0 0 1-8-8V21.33333300000004c0-4.394667 3.605333-8 8-8h176A8.021333 8.021333 0 0 1 896 21.33333300000004v176a8.021333 8.021333 0 0 1-8 8zM256 80.04266700000005c0-1.493333-1.194667-2.709333-2.709333-2.709334H194.602667a2.688 2.688 0 0 0-2.709334 2.709334v58.688c0 1.493333 1.216 2.709333 2.709334 2.709333h58.688c1.493333 0 2.709333-1.216 2.709333-2.709333v-58.688z m288 0c0-1.493333-1.194667-2.709333-2.709333-2.709334h-58.688a2.688 2.688 0 0 0-2.709334 2.709334v58.688c0 1.493333 1.216 2.709333 2.709334 2.709333h58.688c1.493333 0 2.709333-1.216 2.709333-2.709333v-58.688z m-128 442.624V690.666667h192V522.666667h-192zM832 80.04266700000005c0-1.493333-1.194667-2.709333-2.709333-2.709334h-58.688a2.688 2.688 0 0 0-2.709334 2.709334v58.688c0 1.493333 1.216 2.709333 2.709334 2.709333h58.688c1.493333 0 2.709333-1.216 2.709333-2.709333v-58.688z"  horiz-adv-x="1024" />
      
      <glyph glyph-name="-renzhengshenfenchenggongyanzhengrenyuanxianxing" unicode="&#59418;" d="M928 736h-832C78.293333 736 64 721.706667 64 704v-640c0-17.706667 14.293333-32 32-32h832c17.706667 0 32 14.293333 32 32V704c0 17.706667-14.293333 32-32 32z m-40-632H136v560h752v-560zM610.304 420.010667h123.392c1.301333 0 2.304 3.584 2.304 8v48c0 4.394667-1.002667 8-2.304 8h-123.392c-1.301333 0-2.304-3.626667-2.304-8v-48c0-4.416 1.002667-8 2.304-8z m4.8-144h185.706667c3.882667 0 7.082667 3.584 7.082666 8v48c0 4.394667-3.2 8-7.082666 8h-185.706667c-3.904 0-7.104-3.626667-7.104-8v-48c0-4.416 3.2-8 7.104-8zM224 222.99733300000003h43.904a7.978667 7.978667 0 0 1 7.893333 7.509334c3.797333 50.496 45.994667 90.496 97.194667 90.496s93.397333-40 97.216-90.496a7.978667 7.978667 0 0 1 7.893333-7.509334h43.904a8 8 0 0 1 8 8.405334 158.186667 158.186667 0 0 1-74.602666 126.08 111.786667 111.786667 0 0 1 29.098666 75.52c0 61.888-49.92 112-111.402666 112-61.504 0-111.402667-50.112-111.402667-112a112 112 0 0 1 29.098667-75.52 158.08 158.08 0 0 1-74.602667-126.08 7.722667 7.722667 0 0 1 7.808-8.405334z m148.992 261.994667a51.904 51.904 0 0 0 51.712-51.989333 51.904 51.904 0 0 0-51.712-52.010667 51.904 51.904 0 0 0-51.690667 52.010667 51.904 51.904 0 0 0 51.690667 51.989333z"  horiz-adv-x="1024" />
      
      <glyph glyph-name="-gouwuqia_fill" unicode="&#59352;" d="M928 736h-832C78.293333 736 64 721.706667 64 704v-160h896V704c0 17.706667-14.293333 32-32 32zM64 64c0-17.706667 14.293333-32 32-32h832c17.706667 0 32 14.293333 32 32V456H64V64z m578.986667 184c0 4.394667 3.626667 8 8.021333 8h164.992c4.394667 0 8-3.605333 8-8v-72a8.021333 8.021333 0 0 0-8-8h-164.992a8.021333 8.021333 0 0 0-8 8v72z"  horiz-adv-x="1024" />
      
      <glyph glyph-name="-iconfonticonfontyun" unicode="&#59353;" d="M811.392 477.290667c-45.781333 120.810667-162.496 206.72-299.2 206.72-136.682667 0-253.397333-85.802667-299.2-206.613334A200 200 0 0 1 64 283.989333c0-110.506667 89.493333-200 199.893333-200h496.213334c110.4 0 199.893333 89.514667 199.893333 200.021334a200.021333 200.021333 0 0 1-148.608 193.28z m-67.008-25.386667l13.056-34.474667 35.626667-9.429333a128.32 128.32 0 0 0 95.253333-124.010667 128.234667 128.234667 0 0 0-128.213333-128.32H263.893333a128.234667 128.234667 0 0 0-128.213333 128.341334 128.32 128.32 0 0 0 95.530667 124.053333l35.712 9.386667 13.098666 34.538666a248.32 248.32 0 0 0 232.170667 160.32c103.957333 0 195.882667-64.64 232.192-160.426666z"  horiz-adv-x="1024" />
      
      <glyph glyph-name="-gouwuqia" unicode="&#59354;" d="M928 736h-832C78.293333 736 64 721.706667 64 704v-640c0-17.706667 14.293333-32 32-32h832c17.706667 0 32 14.293333 32 32V704c0 17.706667-14.293333 32-32 32zM136 664h752V544H136v120z m752-560H136v352h752v-352z m-237.013333 64h165.013333a8.021333 8.021333 0 0 1 8 8v72A8.021333 8.021333 0 0 1 816 256h-164.992a8.021333 8.021333 0 0 1-8-8v-72c0-4.394667 3.584-8 8-8z"  horiz-adv-x="1024" />
      
      <glyph glyph-name="-iconfonticonfontyun_fill" unicode="&#59355;" d="M811.392 477.290667c-45.781333 120.810667-162.496 206.72-299.2 206.72-136.682667 0-253.397333-85.802667-299.2-206.613334A200 200 0 0 1 64 283.989333c0-110.506667 89.493333-200 199.893333-200h496.213334c110.4 0 199.893333 89.514667 199.893333 200.021334a200.021333 200.021333 0 0 1-148.608 193.28z"  horiz-adv-x="1024" />
      
      <glyph glyph-name="-guanli_fill" unicode="&#59356;" d="M832 810.666667H192c-17.706667 0-32-14.293333-32-32v-507.669334c0 0.597333 0.405333 1.002667 1.002667 1.002667h219.306666l5.184-24.704A129.408 129.408 0 0 1 512 144c61.205333 0 114.410667 43.52 126.4 103.296l5.205333 24.704h219.392c0.597333 0 1.002667-0.405333 1.002667-1.002667V778.666667c0 17.706667-14.293333 32-32 32z m-120-407.68a8.021333 8.021333 0 0 0-8-7.978667H320a8.021333 8.021333 0 0 0-8 8v48c0 4.394667 3.605333 8 8 8h384c4.394667 0 8-3.626667 8-8v-48z m0 160a8.021333 8.021333 0 0 0-8-7.978667H320a8.021333 8.021333 0 0 0-8 8v48c0 4.394667 3.605333 8 8 8h384c4.394667 0 8-3.626667 8-8v-48z m150.997333-353.984h-168.896A193.109333 193.109333 0 0 0 512 80c-44.8 0-88.490667 15.786667-123.008 44.309333a194.026667 194.026667 0 0 0-59.093333 84.693334H161.002667c-0.597333 0-1.002667 0.405333-1.002667 1.002666V-32c0-17.706667 14.293333-32 32-32h640c17.706667 0 32 14.293333 32 32V210.00533299999995c0-0.597333-0.405333-1.002667-1.002667-1.002666z"  horiz-adv-x="1024" />
      
      <glyph glyph-name="-chanpin_fill" unicode="&#59357;" d="M64 339.09333300000003l264.192-173.482666 184.32 153.386666-265.706667 164.309334L64 339.09333300000003z m896 290.304L696.810667 801.002667l-184.32-153.493334 265.216-164.202666-265.216-164.309334 184.32-153.386666L960 337.194667l-182.293333 146.112L960 629.397333zM513.002667 286.20799999999997l-184.810667-153.514667-79.402667 51.498667v-57.792L513.002667-32l263.68 158.4v57.813333L697.813333 132.69333300000005l-184.789333 153.514667z m-184.810667 514.773333L64 630.912l182.805333-147.584 265.685334 164.202667-184.298667 153.493333z"  horiz-adv-x="1024" />
      
      <glyph glyph-name="-hezuowoshouyouyihexiehepinggongyingxianxing_fill" unicode="&#59358;" d="M350.485333 754.133333a21.333333 21.333333 0 0 0 30.165334 0L818.133333 316.629333a21.333333 21.333333 0 0 0 0-30.165333l-45.248-45.248-196.096 196.096a21.333333 21.333333 0 0 1-28.309333 1.664l-1.877333-1.664-15.082667-15.082667a21.333333 21.333333 0 0 1-1.642667-28.309333l1.642667-1.856 196.117333-196.117333-45.269333-45.248-256.426667 256.426666a21.333333 21.333333 0 0 1-28.330666 1.664l-1.856-1.642666-15.082667-15.082667a21.333333 21.333333 0 0 1-1.664-28.309333l1.664-1.877334 256.448-256.426666-45.248-45.269334-196.117333 196.117334a21.333333 21.333333 0 0 1-28.309334 1.642666l-1.856-1.642666-15.082666-15.082667a21.333333 21.333333 0 0 1-1.664-28.309333l1.664-1.877334 196.096-196.096L501.333333-30.29333299999996a21.333333 21.333333 0 0 0-30.165333 0L33.706667 407.168a21.333333 21.333333 0 0 0 0 30.165333L350.485333 754.133333z m377.130667-45.269333a21.333333 21.333333 0 0 0 30.165333 0L984.042667 482.56a21.333333 21.333333 0 0 0 0-30.165333l-120.661334-120.682667L606.933333 588.181333l120.682667 120.682667z"  horiz-adv-x="1024" />
      
      <glyph glyph-name="-hezuowoshouyouyihexiehepinggongyingxianxing" unicode="&#59359;" d="M353.6 746.581333a21.333333 21.333333 0 0 0 30.186667 0l196.096-196.117333 150.848 150.848a21.333333 21.333333 0 0 0 30.165333 0l226.282667-226.261333a21.333333 21.333333 0 0 0 0-30.165334L504.448-37.84533299999998a21.333333 21.333333 0 0 0-30.165333 0L36.821333 399.616a21.333333 21.333333 0 0 0 0 30.165333l316.8 316.8z m15.082667-81.472L118.293333 414.72l371.072-371.072 27.157334 27.136-147.84 147.84a21.333333 21.333333 0 0 0 0 30.165333l15.104 15.082667a21.333333 21.333333 0 0 0 30.165333 0l147.84-147.84 30.165333 30.186667-208.170666 208.170666a21.333333 21.333333 0 0 0 0 30.165334l15.082666 15.082666a21.333333 21.333333 0 0 0 30.165334 0l208.170666-208.170666 30.165334 30.165333-147.84 147.84a21.333333 21.333333 0 0 0 0 30.165333l15.104 15.082667a21.333333 21.333333 0 0 0 30.165333 0l147.84-147.84 27.136 27.157333-371.093333 371.093334z m377.130666-45.248l-114.645333-114.645333 159.893333-159.893333 114.645334 114.645333-159.893334 159.893333z"  horiz-adv-x="1024" />
      
      <glyph glyph-name="-LC_icon_message_line_fill" unicode="&#59360;" d="M928 736h-832C78.293333 736 64 721.706667 64 704v-640c0-17.706667 14.293333-32 32-32h832c17.706667 0 32 14.293333 32 32V704c0 17.706667-14.293333 32-32 32z m-80.810667-108.906667L531.690667 381.589333a21.482667 21.482667 0 0 0-26.496 0L189.589333 627.093333A7.189333 7.189333 0 0 0 194.026667 640h648.789333a7.189333 7.189333 0 0 0 4.394667-12.906667z"  horiz-adv-x="1024" />
      
      <glyph glyph-name="-guanli" unicode="&#59361;" d="M832 810.666667H192c-17.706667 0-32-14.293333-32-32v-810.666667c0-17.706667 14.293333-32 32-32h640c17.706667 0 32 14.293333 32 32v810.666667c0 17.706667-14.293333 32-32 32z m-40-802.666667h-560v201.002667h97.92a194.026667 194.026667 0 0 1 59.093333-84.693334A193.685333 193.685333 0 0 1 512 80a193.109333 193.109333 0 0 1 182.101333 129.002667h97.898667V272h-148.394667l-5.205333-24.704C626.389333 187.51999999999998 573.205333 144 512 144a129.408 129.408 0 0 0-126.506667 103.296l-5.184 24.704h-148.309333V738.666667h560v-730.666667zM320 554.986667h384a8.021333 8.021333 0 0 1 8 8.021333v48a8.021333 8.021333 0 0 1-8 8H320a8.021333 8.021333 0 0 1-8-8v-48c0-4.416 3.605333-8 8-8z m0-160h384a8.021333 8.021333 0 0 1 8 8.021333v48a8.021333 8.021333 0 0 1-8 8H320a8.021333 8.021333 0 0 1-8-8v-48c0-4.416 3.605333-8 8-8z"  horiz-adv-x="1024" />
      
      <glyph glyph-name="-renzhengshenfenchenggongyanzhengrenyuanxianxi_fill" unicode="&#59362;" d="M372.992 484.992a51.904 51.904 0 0 1-51.690667-51.989333 51.904 51.904 0 0 1 51.690667-52.010667 51.904 51.904 0 0 1 51.712 52.010667 51.904 51.904 0 0 1-51.712 51.989333zM928 736h-832C78.293333 736 64 721.706667 64 704v-640c0-17.706667 14.293333-32 32-32h832c17.706667 0 32 14.293333 32 32V704c0 17.706667-14.293333 32-32 32z m-320-260.010667c0 4.416 1.002667 8 2.304 8h123.392c1.301333 0 2.304-3.584 2.304-8v-48c0-4.394667-1.002667-8-2.304-8h-123.392c-1.301333 0-2.304 3.626667-2.304 8v48z m-85.994667-252.992H478.08a7.978667 7.978667 0 0 0-7.893333 7.509334c-3.797333 50.496-46.016 90.496-97.216 90.496-51.2 0-93.397333-40-97.194667-90.496a7.978667 7.978667 0 0 0-7.893333-7.509334H224a8 8 0 0 0-8 8.405334 158.186667 158.186667 0 0 0 74.602667 126.08 111.786667 111.786667 0 0 0-29.098667 75.52c0 61.888 49.898667 112 111.402667 112 61.504 0 111.402667-50.112 111.402666-112a112 112 0 0 0-29.12-75.52 158.08 158.08 0 0 0 74.602667-126.08 7.722667 7.722667 0 0 0-7.786667-8.405334z m278.890667 53.013334h-185.813333c-3.882667 0-7.082667 3.584-7.082667 8v48c0 4.394667 3.2 8 7.104 8h185.706667c3.882667 0 7.082667-3.626667 7.082666-8v-48h0.106667c0-4.416-3.2-8-7.104-8z"  horiz-adv-x="1024" />
      
      <glyph glyph-name="-renzhengshenfenchenggongyanzhengrenyuanxianxi" unicode="&#59363;" d="M928 736h-832C78.293333 736 64 721.706667 64 704v-640c0-17.706667 14.293333-32 32-32h832c17.706667 0 32 14.293333 32 32V704c0 17.706667-14.293333 32-32 32z m-40-632H136v560h752v-560zM610.304 420.010667h123.392c1.301333 0 2.304 3.584 2.304 8v48c0 4.394667-1.002667 8-2.304 8h-123.392c-1.301333 0-2.304-3.626667-2.304-8v-48c0-4.416 1.002667-8 2.304-8z m4.8-144h185.706667c3.882667 0 7.082667 3.584 7.082666 8v48c0 4.394667-3.2 8-7.082666 8h-185.706667c-3.904 0-7.104-3.626667-7.104-8v-48c0-4.416 3.2-8 7.104-8zM224 222.99733300000003h43.904a7.978667 7.978667 0 0 1 7.893333 7.509334c3.797333 50.496 45.994667 90.496 97.194667 90.496s93.397333-40 97.216-90.496a7.978667 7.978667 0 0 1 7.893333-7.509334h43.904a8 8 0 0 1 8 8.405334 158.186667 158.186667 0 0 1-74.602666 126.08 111.786667 111.786667 0 0 1 29.098666 75.52c0 61.888-49.92 112-111.402666 112-61.504 0-111.402667-50.112-111.402667-112a112 112 0 0 1 29.098667-75.52 158.08 158.08 0 0 1-74.602667-126.08 7.722667 7.722667 0 0 1 7.808-8.405334z m148.992 261.994667a51.904 51.904 0 0 0 51.712-51.989333 51.904 51.904 0 0 0-51.712-52.010667 51.904 51.904 0 0 0-51.690667 52.010667 51.904 51.904 0 0 0 51.690667 51.989333z"  horiz-adv-x="1024" />
      
      <glyph glyph-name="-LC_icon_message_line" unicode="&#59364;" d="M928 736h-832C78.293333 736 64 721.706667 64 704v-640c0-17.706667 14.293333-32 32-32h832c17.706667 0 32 14.293333 32 32V704c0 17.706667-14.293333 32-32 32z m-40-110.805333v-521.194667H136V625.194667l-27.605333 21.504 39.296 50.496 42.816-33.28h643.093333l42.794667 33.28 39.296-50.496-27.690667-21.504z m-54.4 38.805333L512 413.994667 190.4 664l-42.794667 33.28-39.296-50.474667L135.893333 625.28l341.610667-265.6a56 56 0 0 1 68.693333 0l341.802667 265.493333 27.605333 21.504-39.296 50.496-42.709333-33.194666z"  horiz-adv-x="1024" />
      
      <glyph glyph-name="-chanpin" unicode="&#59365;" d="M513.002667 286.20799999999997l184.789333-153.514667 78.912 51.498667v-57.792L513.002667-32l-264.213334 158.4v57.813333l79.402667-51.52 184.810667 153.514667z m-266.197334 197.098667l265.685334-164.309334-184.298667-153.386666L64 339.09333300000003l182.805333 144.213334z m530.901334 0L960 337.194667l-263.189333-171.584-184.32 153.386666 265.216 164.309334z m-5.077334-83.434667l-143.658666-89.002667 72.746666-60.544 142.016 92.565334-71.104 56.981333z m-521.088 0.234667l-70.890666-55.914667 142.741333-93.76 72.554667 60.394667-144.405334 89.28z m76.650667 400.896l184.32-153.493334-265.706667-164.202666L64 630.890667l264.192 170.112z m368.618667 0L960 629.397333l-182.293333-146.090666-265.216 164.202666 184.32 153.493334z m4.928-84.714667l-72.768-60.608 143.658666-88.938667 71.082667 56.981334-141.973333 92.565333z m-378.730667 0.192l-142.613333-91.818667 71.658666-57.856 143.893334 88.917334-72.938667 60.757333z"  horiz-adv-x="1024" />
      
      <glyph glyph-name="-jiaotonghuocheyunshuxianxing_fill" unicode="&#59366;" d="M288 192a96 96 0 1 0 0-192 96 96 0 0 0 0 192z m469.333333 0a96 96 0 1 0 0-192 96 96 0 0 0 0 192zM661.333333 725.333333a42.666667 42.666667 0 0 0 42.666667-42.666666v-42.666667h99.562667a21.333333 21.333333 0 0 0 12.8-4.266667l156.437333-117.333333a21.333333 21.333333 0 0 0 8.533333-17.066667V106.66666699999996a21.333333 21.333333 0 0 0-21.333333-21.333334h-64.405333a138.666667 138.666667 0 1 1-276.522667 0h-192.810667A138.666667 138.666667 0 1 1 149.738667 85.33333300000004L64 85.33333300000004a21.333333 21.333333 0 0 0-21.333333 21.333334V682.666667a42.666667 42.666667 0 0 0 42.666666 42.666666h576z m120.917334-149.333333H704v-234.666667h209.066667a4.266667 4.266667 0 0 1 4.117333 3.136L917.333333 345.6v124.096a21.333333 21.333333 0 0 1-6.656 15.466667l-1.92 1.621333-113.749333 84.970667a21.333333 21.333333 0 0 1-12.757333 4.245333z"  horiz-adv-x="1024" />
      
      <glyph glyph-name="-jiaotonghuocheyunshuxianxing" unicode="&#59367;" d="M661.333333 725.333333a42.666667 42.666667 0 0 0 42.666667-42.666666v-42.666667h99.562667a21.333333 21.333333 0 0 0 12.8-4.266667l156.437333-117.333333a21.333333 21.333333 0 0 0 8.533333-17.066667V106.66666699999996a21.333333 21.333333 0 0 0-21.333333-21.333334l-144.384-0.021333a119.509333 119.509333 0 0 0-223.232 0h-203.434667a119.509333 119.509333 0 0 0-223.232 0L64 85.33333300000004a21.333333 21.333333 0 0 0-21.333333 21.333334V682.666667a42.666667 42.666667 0 0 0 42.666666 42.666666h576zM277.333333 179.20000000000005a51.2 51.2 0 1 1 0-102.4 51.2 51.2 0 0 1 0 102.4z m426.666667 0a51.2 51.2 0 1 1 0-102.4 51.2 51.2 0 0 1 0 102.4z m-68.266667 477.866667H110.933333v-503.466667h49.685334a119.509333 119.509333 0 0 0 233.429333 0h193.237333a119.509333 119.509333 0 0 0 233.429334 0H913.066667v164.266667H635.712V622.3573329999999h0.021333V657.066667z m68.245334-270.933334H913.066667v91.754667L787.904 571.733333l-83.946667 0.021334v-185.6z"  horiz-adv-x="1024" />
      
      <glyph glyph-name="-xianxing-weixinhaoyoux_fill" unicode="&#59368;" d="M908.672 385.258667c72.106667-92.992 63.637333-216.405333-24.405333-294.528-25.472-22.613333-34.645333-41.194667-18.304-70.997334 3.029333-5.504 3.370667-12.48 5.12-19.413333-26.176 11.648-50.176 29.12-75.733334 31.786667-25.450667 2.666667-52.224-12.032-78.869333-14.741334-81.130667-8.32-153.813333 14.293333-213.76 69.738667-113.984 105.429333-97.706667 267.093333 34.176 353.493333 117.226667 76.8 289.130667 51.2 371.776-55.338666zM633.984 646.016c28.970667-37.824 46.72-80.256 51.413333-130.474667-82.645333-4.309333-154.496-29.354667-212.864-85.973333-58.944-57.173333-85.845333-127.253333-78.506666-214.122667-32.298667 3.989333-61.717333 8.405333-91.306667 10.88-10.218667 0.853333-22.357333-0.341333-30.997333-5.226666-28.736-16.213333-56.277333-34.517333-88.938667-54.933334 5.994667 27.093333 9.877333 50.816 16.746667 73.642667 5.034667 16.768 2.709333 26.112-12.757334 37.034667-99.2 70.037333-141.013333 174.869333-109.738666 282.794666 28.970667 99.84 100.053333 160.384 196.693333 191.957334 131.861333 43.072 280.064-0.874667 360.256-105.578667z m-60.586667-295.701333c-17.28 0.085333-31.722667-14.741333-31.146666-31.893334 0.576-16.426667 14.4-29.653333 30.933333-29.696 16.661333 0 30.378667 13.013333 31.018667 29.482667a30.997333 30.997333 0 0 1-30.805334 32.106667z m191.829334-0.064a30.805333 30.805333 0 0 1-30.549334-29.44 30.293333 30.293333 0 0 1 30.144-31.872 30.016 30.016 0 0 1 30.549334 29.226666 30.592 30.592 0 0 1-30.144 32.085334zM503.488 587.3066670000001c-20.394667-0.384-37.610667-17.749333-37.269333-37.546667 0.384-20.544 17.28-36.629333 38.250666-36.373333a36.522667 36.522667 0 0 1 36.778667 37.461333 36.757333 36.757333 0 0 1-37.76 36.458667z m-235.093333 0a37.013333 37.013333 0 0 1-38.528-35.797334c-0.64-20.778667 15.274667-37.418667 36.224-37.952 20.757333-0.533333 38.186667 15.402667 38.933333 35.626667 0.768 19.733333-16.341333 37.525333-36.650667 38.101333z"  horiz-adv-x="1024" />
      
      <glyph glyph-name="-xianxing-weixinhaoyoux" unicode="&#59369;" d="M418.346667 734.016c148.586667-14.613333 246.314667-87.189333 287.914666-213.461333l2.282667-7.210667 0.042667-0.405333 6.592-0.746667c103.104-12.586667 192.426667-72.32 222.464-168.192l1.92-6.442667 1.706666-6.4c13.738667-53.802667 4.202667-103.829333-22.656-149.205333-16.469333-27.84-36.48-49.92-58.922666-69.205333l-1.749334-1.429334 13.141334-59.114666 0.256-2.304c0-8.96-2.752-17.664-7.978667-24.234667l-2.410667-2.709333-2.773333-1.984-6.058667-3.328a23.253333 23.253333 0 0 0-10.816-2.645334c-2.688 0-4.096 0.085333-6.229333 0.618667a17.962667 17.962667 0 0 0-6.634667 3.2l-0.384 0.341333-75.477333 38.869334-14.037333-2.901334-2.858667-0.533333c-45.994667-8.362667-92.928-8.661333-141.866667 4.373333-66.112 17.813333-128.448 64.042667-162.218666 124.842667l-3.392 6.336-3.157334 6.357333-4.48-0.170666a775.104 775.104 0 0 0-102.037333 4.992l-11.498667 1.408-6.890666 0.917333-87.872-39.317333a18.197333 18.197333 0 0 0-2.944-1.92l-1.493334-0.682667-2.346666-0.746667c-2.133333-0.533333-3.52-0.64-6.208-0.64-6.4 0-13.056 2.517333-17.770667 6.293334l-1.578667 1.408 1.365334-1.301334a22.506667 22.506667 0 0 0-12.544 25.728l0.704 2.517334 13.12 63.573333-3.690667 2.816c-69.354667 53.888-118.741333 142.656-97.365333 245.12l1.536 6.826667 1.706666 6.826666C121.792 663.466667 269.290667 748.074667 418.389333 733.9946669999999zM658.048 453.546667c-91.946667-7.36-168.405333-51.562667-189.162667-142.122667-22.336-91.2 53.610667-172.672 140.309334-197.973333a241.941333 241.941333 0 0 1 134.677333 1.578666l1.685333 0.576 3.690667 0.682667h7.253333a19.562667 19.562667 0 0 0 13.077334-3.989333l0.234666-0.234667 28.736-15.04-3.690666 14.912c-3.712 11.136-0.213333 22.378667 9.941333 30.357333l2.666667 1.92c8.149333 4.074667 32.917333 25.450667 50.133333 48.618667 26.24 35.349333 37.546667 73.941333 28.138667 115.114667l-1.472 5.845333c-23.786667 95.146667-128.64 148.608-226.218667 139.733333z m-516.266667 51.605333c-14.016-55.168-1.024-106.026667 31.104-151.744 18.944-26.944 46.037333-51.882667 56.341334-58.154667l1.493333-0.810666 2.773333-2.005334c8-8.021333 12.650667-17.344 10.88-26.325333l-0.704-2.688-5.674666-28.245333 45.290666 20.138666 1.941334 1.216a19.562667 19.562667 0 0 0 4.416 1.728l2.389333 0.512c1.322667 0.213333 2.474667 0.341333 4.117333 0.362667l4.245334-0.064 10.026666-1.429333 12.906667-1.557334a687.552 687.552 0 0 1 69.44-4.48l14.506667 0.021334-0.32 2.474666a191.082667 191.082667 0 0 0 3.029333 61.653334l1.834667 7.957333c24.32 102.208 107.093333 169.344 227.669333 185.685333l7.786667 1.002667-2.496 6.464c-36.650667 91.754667-108.16 141.589333-222.954667 156.202667l-8.042667 0.96c-114.581333 12.394667-240.32-50.133333-272-168.874667z m459.690667-130.624a29.077333 29.077333 0 1 0 0-58.133333 29.077333 29.077333 0 0 0 0 58.133333z m155.050667 0a29.077333 29.077333 0 1 0 0-58.133333 29.077333 29.077333 0 0 0 0 58.133333z m-462.741334 210.773333a36.330667 36.330667 0 1 0 0-72.682666 36.330667 36.330667 0 0 0 0 72.682666z m205.930667 0a36.330667 36.330667 0 1 0 0-72.682666 36.330667 36.330667 0 0 0 0 72.682666z"  horiz-adv-x="1024" />
      
      <glyph glyph-name="-xiaoshouchuku" unicode="&#59351;" d="M505.706667 436.992a8 8 0 0 0 12.586666 0l112-141.802667a7.978667 7.978667 0 0 0-6.293333-12.885333h-74.090667v-242.304a8.021333 8.021333 0 0 0-8-8h-60.010666a8.021333 8.021333 0 0 0-8 8V282.410667H400a7.978667 7.978667 0 0 0-6.293333 12.885333zM512.192 736c136.704 0 253.418667-85.909333 299.2-206.72A200.021333 200.021333 0 0 0 960 336c0-110.506667-89.493333-200-199.893333-200h-40.106667a8.021333 8.021333 0 0 0-8 8v60.010667c0 4.394667 3.605333 7.978667 8 7.978666h40.106667c33.088 0 64.213333 12.906667 87.594666 36.309334a123.306667 123.306667 0 0 1 36.309334 87.701333 124.565333 124.565333 0 0 1-92.117334 120.106667l-37.802666 9.984-13.781334 36.501333a245.717333 245.717333 0 0 1-88.106666 113.28 242.133333 242.133333 0 0 1-140.010667 44.224 242.133333 242.133333 0 0 1-139.989333-44.202667 245.610667 245.610667 0 0 1-88.106667-113.28l-13.888-36.608-37.909333-9.898666a125.312 125.312 0 0 1-66.090667-43.712 123.029333 123.029333 0 0 1-26.218667-72.106667 123.946667 123.946667 0 0 1 34.901334-90.581333 123.264 123.264 0 0 1 89.002666-37.696h40.106667c4.394667 0 8-3.626667 8-8.021334v-59.989333a8.021333 8.021333 0 0 0-8-8h-40.106667C153.493333 136 64 225.493333 64 336c0 92.8 63.296 170.88 148.992 193.408C258.794667 650.197333 375.509333 736 512.213333 736z"  horiz-adv-x="1024" />
      
      <glyph glyph-name="-shenheguanli_fill" unicode="&#59321;" d="M810.666667 45.14133300000003a21.333333 21.333333 0 0 0 21.333333-21.333333V-23.46666700000003a8.533333 8.533333 0 0 0-8.533333-8.533333H200.533333a8.533333 8.533333 0 0 0-8.533333 8.533333v47.274667a21.333333 21.333333 0 0 0 21.333333 21.333333h597.333334zM512 800a189.589333 189.589333 0 0 0 94.784-353.749333l-0.021333-70.378667H768a64 64 0 0 0 64-64v-194.133333a8.533333 8.533333 0 0 0-8.533333-8.533334H200.533333a8.533333 8.533333 0 0 0-8.533333 8.533334v194.133333a64 64 0 0 0 64 64h161.216v70.378667A189.589333 189.589333 0 0 0 512 800z"  horiz-adv-x="1024" />
      
      <glyph glyph-name="-shenheguanli" unicode="&#59322;" d="M810.666667 45.14133300000003a21.333333 21.333333 0 0 0 21.333333-21.333333V-23.46666700000003a8.533333 8.533333 0 0 0-8.533333-8.533333H200.533333a8.533333 8.533333 0 0 0-8.533333 8.533333v47.274667a21.333333 21.333333 0 0 0 21.333333 21.333333h597.333334zM512 800a189.589333 189.589333 0 0 0 94.784-353.749333l-0.021333-70.378667H768a64 64 0 0 0 64-64v-194.133333a8.533333 8.533333 0 0 0-8.533333-8.533334H200.533333a8.533333 8.533333 0 0 0-8.533333 8.533334v194.133333a64 64 0 0 0 64 64h161.216v70.378667A189.589333 189.589333 0 0 0 512 800z m0-71.68a117.909333 117.909333 0 0 1-58.88-220.032l35.776-20.693333v-183.402667H263.68v-123.306667h496.64v123.306667H535.061333l0.042667 183.402667 35.776 20.693333A117.909333 117.909333 0 0 1 512 728.3199999999999z"  horiz-adv-x="1024" />
      
      <glyph glyph-name="-huangguanwangguanhuiyuanshenfendengjirenzheng_fill" unicode="&#59323;" d="M505.429333 743.466667a8.32 8.32 0 0 0 13.056 0l189.12-245.696 197.205334 118.357333c5.866667 3.456 13.269333-1.173333 12.458666-7.786667l-77.44-573.184a16.149333 16.149333 0 0 0-16.085333-13.824H200.384a16.341333 16.341333 0 0 0-16.213333 13.824l-77.44 573.184c-0.896 6.613333 6.613333 11.242667 12.373333 7.786667l197.333333-118.357333zM512 422.4a119.04 119.04 0 1 1 0-238.122667A119.04 119.04 0 0 1 512 422.4z m0-76.8a42.24 42.24 0 1 0 0-84.522667 42.24 42.24 0 0 0 0 84.522667z"  horiz-adv-x="1024" />
      
      <glyph glyph-name="-liwuhejiangpinlibaoxianxing" unicode="&#59324;" d="M880 586.0053330000001h-147.605333a137.642667 137.642667 0 0 1 21.610666 74.005334 138.154667 138.154667 0 0 1-138.005333 137.984c-41.386667 0-78.72-18.389333-104-47.402667a137.856 137.856 0 0 1-104 47.402667 138.154667 138.154667 0 0 1-138.005333-137.984c0-27.221333 7.893333-52.608 21.610666-74.026667H144c-17.706667 0-32-14.293333-32-32v-199.978667c0-4.416 3.605333-8 8-8H160v-344c0-17.706667 14.293333-32 32-32h640c17.706667 0 32 14.293333 32 32V346.00533299999995h40a8.021333 8.021333 0 0 1 8 8v200c0 17.706667-14.293333 32-32 32z m-333.994667 74.005334a70.08 70.08 0 0 0 69.994667 69.973333 70.08 70.08 0 0 0 69.994667-69.973333 70.08 70.08 0 0 0-69.994667-70.016h-69.994667v69.994666z m-138.005333 69.973333a70.08 70.08 0 0 0 69.994667-69.973333v-70.016h-69.994667a70.08 70.08 0 0 0-69.994667 69.994666 70.08 70.08 0 0 0 69.994667 70.016zM179.989333 414.016v104h298.026667v-104H179.968z m48-67.989333h250.026667V37.973333000000025h-250.026667V346.026667zM796.032 37.973333000000025h-250.026667V346.026667h250.026667V37.973333000000025z m48 376h-298.026667v104h298.026667v-104z"  horiz-adv-x="1024" />
      
      <glyph glyph-name="-qingjiajiaban_fill" unicode="&#59325;" d="M490.944 789.333333c73.002667-0.128 185.941333-47.210667 185.941333-157.546666 0-23.68-4.650667-52.949333-3.2-66.688 1.109333-11.477333 2.453333-34.304-0.96-47.936-2.325333-9.429333-5.973333-27.818667-11.584-49.237334-125.141333-27.946667-218.666667-139.690667-218.666666-273.258666 0-86.954667 39.616-164.650667 101.824-216H97.92a12.8 12.8 0 0 0-12.373333 11.029333l-0.106667 2.090667 2.624 106.666666c5.632 27.605333 62.762667 61.546667 171.52 101.589334 4.266667 1.429333 7.829333 2.752 10.624 4.181333 66.410667 23.552 100.970667 36.693333 103.765333 39.445333 8.426667 5.504 12.693333 29.056 12.693334 70.528 0 16.618667-4.992 33.941333-19.029334 48.768-37.610667 39.552-53.226667 128.853333-59.456 154.197334-3.413333 13.632-2.197333 36.330667-0.981333 47.936 1.344 13.610667-3.178667 43.029333-3.178667 66.688 0 108.330667 108.864 155.584 181.909334 157.482666L489.984 789.333333h0.96zM722.56 410.666667c119.296 0 216-96.704 216-216S841.834667-21.33333300000004 722.56-21.33333300000004s-216 96.704-216 216S603.242667 410.666667 722.56 410.666667z m20.010667-111.914667h-40c-4.394667 0-8-3.370667-8-7.488l-0.042667-102.485333a7.637333 7.637333 0 0 1 0.618667-5.418667l0.106666-0.213333 0.106667-0.170667a7.509333 7.509333 0 0 1 2.730667-3.029333l72.597333-72.576c2.901333-2.901333 7.850667-2.752 10.965333 0.362666l28.266667 28.288c3.114667 3.114667 3.285333 8.042667 0.362667 10.965334l-59.733334 59.712v84.565333c0 4.117333-3.584 7.488-7.978666 7.488z"  horiz-adv-x="1024" />
      
      <glyph glyph-name="-mima_huaban_fill" unicode="&#59326;" d="M832 432h-68.010667v224a128 128 0 0 1-128 128H388.010667a128 128 0 0 1-128-128v-224H192c-17.706667 0-32-14.293333-32-32v-384c0-17.706667 14.293333-32 32-32h640c17.706667 0 32 14.293333 32 32v384c0 17.706667-14.293333 32-32 32zM539.989333 194.986667v-52.992a8.021333 8.021333 0 0 0-8-8h-40a8.021333 8.021333 0 0 0-8 8v53.013333a48 48 0 1 0 56 0z m152 237.013333H332.032v224a56.042667 56.042667 0 0 0 55.978667 56h248a56.042667 56.042667 0 0 0 56-56v-224z"  horiz-adv-x="1024" />
      
      <glyph glyph-name="-faxian" unicode="&#59327;" d="M512 768c98.432 0 188.224-37.034667 256.170667-97.941333l-4.074667 3.712-4.928 4.181333 8.96 2.730667 5.098667 1.365333c86.762667 15.466667 149.632 5.205333 175.850666-40.213333 26.389333-45.696 0.896-110.549333-60.693333-181.397334 4.992-24.704 7.616-50.261333 7.616-76.437333 0-212.074667-171.925333-384-384-384a382.528 382.528 0 0 0-253.077333 95.189333c-94.592-19.242667-165.461333-9.344-192.298667 37.162667-27.797333 48.128-0.938667 112.298667 64 184.96l21.546667-74.666667c-27.861333-37.802667-37.184-66.069333-30.122667-78.293333 9.066667-15.701333 39.850667-20.074667 85.12-13.930667A382.378667 382.378667 0 0 0 128 384c0 212.074667 171.925333 384 384 384z m315.392-369.194667l-3.626667-3.264c-60.714667-54.4-138.773333-109.973333-227.669333-161.301333-88.96-51.370667-176.170667-91.2-253.696-116.586667A314.218667 314.218667 0 0 1 512 68.26666699999998c174.378667 0 315.733333 141.354667 315.733333 315.733333 0 4.970667-0.106667 9.898667-0.341333 14.805333zM512 699.733333C337.621333 699.733333 196.266667 558.378667 196.266667 384a314.666667 314.666667 0 0 1 86.528-217.152c79.296 22.336 179.328 63.936 281.301333 122.816 103.893333 59.968 191.210667 127.168 250.282667 185.429333C775.296 605.056 654.72 699.733333 512 699.733333z m381.653333-89.898666c-6.890667 11.946667-35.541333 18.261333-82.197333 13.141333l1.066667 0.106667a383.786667 383.786667 0 0 0 53.525333-90.133334c25.856 34.346667 36.330667 61.738667 27.605333 76.885334z"  horiz-adv-x="1024" />
      
      <glyph glyph-name="-huangguanwangguanhuiyuanshenfendengjirenzhengxianxing" unicode="&#59328;" d="M505.429333 743.466667a8.32 8.32 0 0 0 13.056 0l189.12-245.696 197.205334 118.357333c5.866667 3.456 13.269333-1.173333 12.458666-7.786667l-77.44-573.184a16.149333 16.149333 0 0 0-16.085333-13.824H200.384a16.341333 16.341333 0 0 0-16.213333 13.824l-77.44 573.184c-0.896 6.613333 6.613333 11.242667 12.373333 7.786667l197.333333-118.357333z m6.549334-109.034667L334.293333 403.456l-138.794666 83.264 53.184-393.706667h526.656l53.184 393.728-138.794667-83.306666L512 634.4533329999999zM512 419.84a116.48 116.48 0 1 0 0-233.002667 116.48 116.48 0 0 0 0 233.002667z m0-71.68a44.8 44.8 0 1 1 0-89.642667 44.8 44.8 0 0 1 0 89.642667z"  horiz-adv-x="1024" />
      
      <glyph glyph-name="-mima_huaban" unicode="&#59329;" d="M832 432h-68.010667v224a128 128 0 0 1-128 128H388.010667a128 128 0 0 1-128-128v-224H192c-17.706667 0-32-14.293333-32-32v-384c0-17.706667 14.293333-32 32-32h640c17.706667 0 32 14.293333 32 32v384c0 17.706667-14.293333 32-32 32z m-500.010667 224a56.042667 56.042667 0 0 0 56.021334 56h248a56.042667 56.042667 0 0 0 56-56v-224H331.968v224z m460.010667-600h-560v304h560v-304z m-308.010667 139.008v-53.013333c0-4.394667 3.626667-8 8-8h40a8.021333 8.021333 0 0 1 8 8v53.013333a48 48 0 1 1-56 0z"  horiz-adv-x="1024" />
      
      <glyph glyph-name="-qingjiajiaban" unicode="&#59330;" d="M493.162667 789.333333l5.013333-0.042666c73.045333-1.813333 181.888-49.173333 181.888-157.504 0-21.845333-3.946667-48.469333-3.413333-63.253334l0.256-3.434666 0.64-8.106667c0.789333-12.16 1.109333-28.928-1.621334-39.829333-2.346667-9.429333-5.973333-27.818667-11.584-49.237334-31.744-7.082667-61.44-19.562667-88.106666-36.416 3.349333 7.04 6.784 15.616 10.112 25.386667 3.498667 10.325333 6.698667 21.397333 9.792 33.578667l2.304 9.344 7.957333 34.773333a103.914667 103.914667 0 0 1 0 9.706667l-0.085333 2.282666-0.277334 5.482667-0.426666 5.44a121.024 121.024 0 0 0-0.789334 16.768l0.170667 4.906667 0.512 8.490666 2.261333 29.333334 0.533334 9.664 0.085333 5.12c0 47.253333-51.285333 83.690667-109.248 85.76l-4.992 0.106666h-0.746667c-62.272-0.213333-120.853333-38.656-120.853333-85.866666 0-3.157333 0.128-6.912 0.384-11.456l0.213333-3.541334 2.453334-32.725333a194.133333 194.133333 0 0 0 0.490666-13.504l-0.064-2.773333-0.298666-5.546667-0.853334-10.005333c-0.533333-8.234667-0.512-16.896-0.256-17.984 0.64-2.56 3.328-14.613333 5.525334-24.277334l0.64-2.816 4.010666-16.704c3.093333-12.16 6.272-23.210667 9.770667-33.536 6.933333-20.416 14.4-35.562667 20.458667-42.965333l1.493333-1.706667 4.48-4.928c23.104-26.730667 34.197333-59.221333 34.197333-93.12 0-23.936-0.746667-43.818667-3.285333-60.586666-0.938667-4.224-1.749333-8.512-2.474667-12.821334-5.269333-22.784-15.210667-39.253333-33.28-52.821333-8.874667-7.786667-18.837333-12.864-55.125333-26.24l-5.12-1.856-61.44-21.973333a133.973333 133.973333 0 0 0-13.269333-5.12c-50.602667-18.624-88.426667-35.477333-112.661334-49.856-3.754667-2.24-7.04-4.309333-9.856-6.229334l-2.666666-1.834666-0.597334-24.512h330.261334a281.408 281.408 0 0 1 61.845333-71.722667L95.04-21.33333300000004l-2.368 0.213333a12.8 12.8 0 0 0-10.304 10.816l-0.106667 2.090667 2.645334 106.666666c5.610667 27.605333 62.741333 61.546667 171.52 101.589334 4.266667 1.429333 7.808 2.752 10.624 4.181333 64.192 22.762667 98.602667 35.797333 103.381333 39.125333l0.384 0.32 1.216 0.96c7.616 6.933333 11.477333 30.165333 11.477333 69.546667 0 15.253333-4.202667 31.082667-15.722666 45.013333l-3.328 3.776-3.818667 4.266667c-24.597333 29.226667-39.189333 79.701333-47.765333 115.477333l-1.536 6.528-6.336 27.925334c-3.413333 13.632-2.197333 36.330667-0.981334 47.936 1.344 13.610667-3.157333 43.029333-3.157333 66.688 0 110.336 119.296 157.312 192.298667 157.546666zM725.76 410.666667c119.296 0 216-96.704 216-216S845.013333-21.33333300000004 725.738667-21.33333300000004s-216 96.704-216 216S606.442667 410.666667 725.738667 410.666667z m0-64a151.04 151.04 0 0 1-107.52-44.501334 151.04 151.04 0 0 1-44.48-107.498666 151.04 151.04 0 0 1 44.501333-107.52A151.04 151.04 0 0 1 725.738667 42.66666699999996a151.04 151.04 0 0 1 107.498666 44.501333 151.04 151.04 0 0 1 44.501334 107.498667 151.04 151.04 0 0 1-44.501334 107.52 151.04 151.04 0 0 1-107.52 44.48z m19.989333-47.914667c3.84 0 7.104-2.56 7.850667-5.973333l0.149333-1.514667v-84.565333l59.733334-59.733334a7.658667 7.658667 0 0 0 0.789333-9.514666l-1.152-1.429334-28.288-28.288a7.936 7.936 0 0 0-9.6-1.408l-1.365333 1.066667-72.576 72.554667a7.744 7.744 0 0 0-2.773334 3.029333c0 0.064-0.042667 0.106667-0.064 0.170667a7.552 7.552 0 0 0-0.725333 5.632l0.021333 102.485333c0 3.605333 2.773333 6.634667 6.4 7.338667l1.6 0.149333h40z"  horiz-adv-x="1024" />
      
      <glyph glyph-name="-faxian_fill" unicode="&#59331;" d="M512 768c98.432 0 188.224-37.034667 256.170667-97.941333 5.333333-4.949333 10.773333-10.538667 16.405333-16.512 8.810667-9.386667 17.770667-19.584 26.88-30.570667l1.066667 0.106667a386.304 386.304 0 0 1-44.352 46.976l-4.074667 3.712-4.928 4.181333 8.96 2.730667 5.098667 1.365333c86.762667 15.466667 149.632 5.205333 175.850666-40.213333 26.389333-45.696 0.896-110.549333-60.693333-181.397334 4.992-24.704 7.616-50.261333 7.616-76.437333 0-212.074667-171.925333-384-384-384a382.528 382.528 0 0 0-253.077333 95.189333c95.232 19.349333 214.528 68.245333 337.173333 139.050667 124.736 72.021333 228.117333 152.362667 292.266667 226.197333a379.904 379.904 0 0 1-22.314667 72.512c25.856 34.346667 36.330667 61.738667 27.605333 76.885334-6.890667 11.946667-35.541333 18.261333-82.197333 13.141333l1.066667 0.106667a383.786667 383.786667 0 0 0 53.525333-90.133334c-50.88-67.562667-161.237333-162.048-301.952-243.285333-138.090667-79.722667-272.64-127.765333-356.928-139.242667a386.986667 386.986667 0 0 1 51.754667-55.253333c-94.592-19.221333-165.461333-9.322667-192.298667 37.184-27.797333 48.128-0.938667 112.298667 64 184.96l21.546667-74.666667c-27.861333-37.802667-37.184-66.069333-30.122667-78.293333 9.066667-15.701333 39.850667-20.074667 85.12-13.930667A382.378667 382.378667 0 0 0 128 384c0 212.074667 171.925333 384 384 384z"  horiz-adv-x="1024" />
      
      <glyph glyph-name="-zhoubianxuexiaoboshimaoxianxing_fill" unicode="&#59332;" d="M789.333333 385.856v-257.962667a32 32 0 0 0-18.688-29.098666l-135.893333-62.122667a310.293333 310.293333 0 0 0-267.456 4.522667l-114.901333 57.301333A32 32 0 0 0 234.666667 127.12533299999996V385.856l265.664-103.957333a32 32 0 0 1 20.053333-1.066667l3.285333 1.066667L789.333333 385.856z m-265.664 334.933333L951.893333 553.173333a21.333333 21.333333 0 0 0 0-39.722666L896 491.605333v-145.642666a8.533333 8.533333 0 0 0-8.533333-8.533334h-46.933334a8.533333 8.533333 0 0 0-8.533333 8.533334V466.56l-308.330667-120.661333a32 32 0 0 0-23.338666 0L72.106667 513.472a21.333333 21.333333 0 0 0 0 39.722667l428.224 167.573333a32 32 0 0 0 23.338666 0z"  horiz-adv-x="1024" />
      
      <glyph glyph-name="-zhoubianxuexiaoboshimaoxianxing" unicode="&#59333;" d="M523.669333 720.768l428.224-167.573333a21.333333 21.333333 0 0 0 0-39.722667L896 491.605333v-145.642666a8.533333 8.533333 0 0 0-8.533333-8.533334h-46.933334a8.533333 8.533333 0 0 0-8.533333 8.533334V466.56l-42.666667-16.704v-321.962667a32 32 0 0 0-18.688-29.098666l-135.893333-62.122667a310.293333 310.293333 0 0 0-267.456 4.522667l-114.901333 57.301333A32 32 0 0 0 234.666667 127.12533299999996V449.856L72.106667 513.493333a21.333333 21.333333 0 0 0 0 39.722667l428.224 167.573333a32 32 0 0 0 23.338666 0z m193.984-300.586667L512 339.989333l-205.653333 80.213334V151.67999999999995l92.949333-46.336a238.613333 238.613333 0 0 1 205.653333-3.477333l112.704 51.52V420.202667zM512 648.384L218.026667 533.333333 512 418.304 805.973333 533.333333 512 648.362667z"  horiz-adv-x="1024" />
      
      <glyph glyph-name="-liwuhejiangpinlibaoxianxing_fill" unicode="&#59334;" d="M160 2.0053329999999505c0-17.706667 14.293333-32 32-32h285.994667V346.00533299999995H160v-344z m386.005333-32H832c17.706667 0 32 14.293333 32 32V346.00533299999995H546.005333v-376zM880 586.0053330000001h-147.605333a137.642667 137.642667 0 0 1 21.610666 74.005334 138.154667 138.154667 0 0 1-138.005333 137.984c-41.386667 0-78.72-18.389333-104-47.402667a137.856 137.856 0 0 1-104 47.402667 138.154667 138.154667 0 0 1-138.005333-137.984c0-27.221333 7.893333-52.608 21.610666-74.026667H144c-17.706667 0-32-14.293333-32-32v-139.989333h365.994667V586.026667h68.010666v-172.010667H912V554.026667c0 17.706667-14.293333 32-32 32z m-402.005333 3.989334h-69.994667a70.08 70.08 0 0 0-69.994667 69.994666 70.08 70.08 0 0 0 69.994667 70.016 70.08 70.08 0 0 0 69.994667-70.016v-69.973333z m138.005333 0h-69.994667v69.994666a70.08 70.08 0 0 0 69.994667 70.016 70.08 70.08 0 0 0 69.994667-70.016 70.08 70.08 0 0 0-69.994667-69.973333z"  horiz-adv-x="1024" />
      
      <glyph glyph-name="-maifangrenminbifangzixianxing" unicode="&#59335;" d="M512 832C264.597333 832 64 631.4026670000001 64 384s200.597333-448 448-448 448 200.597333 448 448S759.402667 832 512 832z m0-820.010667c-205.397333 0-372.010667 166.613333-372.010667 372.010667S306.602667 756.010667 512 756.010667 884.010667 589.397333 884.010667 384 717.376 11.989332999999988 512 11.989332999999988z m159.594667 585.002667h-59.498667a7.893333 7.893333 0 0 1-7.104-4.394667l-90.602667-179.989333h-3.392l-90.602666 179.989333a8 8 0 0 1-7.104 4.394667h-60.693334a8.042667 8.042667 0 0 1-6.997333-11.904l111.402667-204.8h-61.397334a8.021333 8.021333 0 0 1-8-7.978667v-29.909333c0-4.394667 3.584-8 8-8h81.706667v-41.386667h-81.706667a8.021333 8.021333 0 0 1-8-8.021333v-29.888c0-4.394667 3.584-8 8-8h81.706667v-68.096c0-4.416 3.584-8 7.978667-8h54.314666a8.021333 8.021333 0 0 1 8 8v68.096h81.984a8.021333 8.021333 0 0 1 8 8v29.888a8.021333 8.021333 0 0 1-8 8H547.626667V334.506667h81.984a8.021333 8.021333 0 0 1 8 8v29.888a8.021333 8.021333 0 0 1-8 8h-61.994667l111.104 204.8a8.618667 8.618667 0 0 1 1.002667 3.797333 8.170667 8.170667 0 0 1-8.106667 8z"  horiz-adv-x="1024" />
      
      <glyph glyph-name="-fenxiangxianxing_fill" unicode="&#59336;" d="M752 232a119.466667 119.466667 0 0 1-75.392-26.709333l-207.210667 149.909333a160.682667 160.682667 0 0 1 0 57.6l207.210667 149.909333a119.466667 119.466667 0 0 1 75.392-26.709333 120.106667 120.106667 0 0 1 120 120 120.106667 120.106667 0 0 1-120 120 120.106667 120.106667 0 0 1-115.306667-153.301333l-196.8-142.506667a159.914667 159.914667 0 0 1-127.893333 63.808 159.957333 159.957333 0 0 1-160-160c0-88.405333 71.594667-160 160-160a159.914667 159.914667 0 0 1 127.893333 63.786667l196.8-142.506667a120.106667 120.106667 0 0 1 115.306667-153.301333 120.106667 120.106667 0 0 1 120 120.021333 120.106667 120.106667 0 0 1-120 120z"  horiz-adv-x="1024" />
      
      </font>
</defs>
</svg>
